<?xml version="1.0" encoding="utf-8"?>
<!-- Generator: Adobe Illustrator 25.2.1, SVG Export Plug-In . SVG Version: 6.00 Build 0)  -->
<svg version="1.1" id="Слой_1" xmlns="http://www.w3.org/2000/svg" xmlns:xlink="http://www.w3.org/1999/xlink" x="0px" y="0px"
	 viewBox="0 0 1920 1089.1" style="enable-background:new 0 0 1920 1089.1;" xml:space="preserve">
<style type="text/css">
	.st0{opacity:0.11;}
	.st1{fill:#683B11;}
	.st2{fill:#ACBBC6;}
</style>
<g class="st0">
	<path class="st1" d="M1536.4,0c-7.7,2.3-15.6,4.2-23.1,7.1c-9,3.3-17.7,7.1-26.2,11.6c-11.2,6.1-21.7,13.1-32.5,19.8
		c-2.2,1.3-4.4,2.5-6.7,3.8c-0.1,9.3-5.1,14.4-13.3,12.8c-2,6.3-3.3,13.1-12,16.4c-2.2-5.6-5-4.9-8.5-1.1
		c-14.1,15.4-29,30.3-42.2,46.3c-14.1,17-27.4,34.5-39.8,52.5c-17.1,24.8-32.4,50.6-49.7,75.3c-11.8,17-25.5,33-38.8,49.1
		c-9.1,11-18.5,21.9-28.6,32.2c-10.4,10.6-22.1,20.3-32.9,30.6c-4.3,4.1-10.6,7.3-9,14.7c0.4,1.8-2.8,4.3-4.3,6.4l-8.2-2.7
		c-5.5,5.3-10.4,10.2-15.4,15c-3.3,3.2-4.6,6,0.9,8.6c2.6,1.2,4.6,3.4,6.7,5.2c0.7,0.7,1.2,1.6,1.2,2.6c0,2.8-11.1,10.4-14.3,10
		c-4-0.6-8.2-0.7-12-1.9c-8.3-2.4-14.6,0.5-20.7,5c-14.7,10.9-29.4,21.6-44.2,32.4c-12.2,8.8-24.7,17.4-36.8,26.4
		c-1.7,1.3-1.8,4.4-4.2,6.6c0.5-3.4,0.8-6.9,1.5-10.3s2.7-7.1,1.9-10.1c-4.1-15.1-5.5-30.4-6-45.8c-0.3-10.4-2.5-20.7-3.7-31
		c-2.2-18.1-4.7-36.2-6.4-54.4c-2.5-26.3-10.3-51.6-18.3-76.9c-3.7-11.2-8.5-22-14.4-32.2c-9.4-16.7-18.8-33.6-30.2-49.3
		c-17.4-23.6-39.4-43.6-64.7-58.6c-15.3-9.2-33.1-15.7-50.4-22c-24-8.7-47-20-68.5-33.7c-15-9.6-32.1-15.5-49.9-19.8
		c-31.8-7.7-64.6-10.1-97-14.1c-10.6-1.3-20.6-4.4-31.2-5.3c-15.4-1.4-30.6-3.5-46.3-2.1c-12.4,1.1-25,0.5-37.5,0.9
		c-2.6,0-5.1,0.4-7.5,1.3c-17.4,6.7-36.1,8.5-54.5,11.4c-10.7,1.7-21.7,1.8-32.6,2.6c-9.9,0.8-19.9,2-29.8,2.3
		c-10.7,0.3-21.4,0.1-32.1-0.6c-11.2-0.7-22.5-1.9-33.6-3.5c-9.9-1.5-19.8-3.6-29.5-5.9c-6-1.4-11.7-3.5-19.2-5.9L276,0h-7.9
		c-1.6,6.2-3.3,12.3-5.3,19.8L216.7,0h-17.1c11.3,5.1,22.6,10.1,33.8,15.3c12.6,5.8,24.9,12,37.6,17.4c7,3,14.5,6,22,7
		c26.9,3.4,53.8,7.2,80.9,8.2c20.3,0.7,40.9-2.1,61.2-4.5c13.6-1.6,26.8-5.3,40.2-7.9c6-1.2,12-2,18.6-3.1c-1.1,1.6-2.5,3-2.9,4.6
		s-0.3,3.9,0.8,5c13,12.6,26,25.3,39.5,37.5c8.2,7.4,17.5,13.8,26.1,20.8s17.1,14.5,26,21.4s18.4,13,27.7,19.5
		c9.4,6.6,18.7,13.3,28.1,19.8c8.2,5.7,16.6,11.2,24.9,16.9c10.7,7.3,21.3,14.4,33,20.6c14,7.4,26.5,17,40,25.2
		c10.9,6.6,22.4,12.6,33.6,18.8c8.6,4.7,16.7,10.7,26,13.7c16.5,5.3,16.1,17.6,18.5,29.2c2,9.9,4.8,19.8,7,29.7
		c1.8,8.3,3.2,16.6,4.8,24.9c0.5,2.8,1.1,5.6,1.6,8.5c3,17.9,5.6,35.8,8.9,53.6c4.4,24,9.5,48,14,72c3.9,20.6,7.2,41.3,11.2,61.9
		c1.9,9.8,4.7,19.5,6.7,29.3c2.2,10.7,4.1,21.5,6.2,32.6c6.1-2.4,7.8-6.1,9.1-11.5c3.5-14.3-1.9-27.4-4.2-41
		c-4.2-24.8-8.1-49.6-12.5-74.3c-3.3-18.7-7.1-37.2-10.8-55.9c-3.5-17.5-7-34.9-10.7-52.4c-3.8-18-7.7-35.9-11.5-53.9
		c-1.5-7-2.7-14.1-3.8-21.1c-1.1-6.7-2.7-12.7-11.7-14.7c-1.5-0.3-2.3-3.2-3.4-5l2.1-1.5l178,91.2c4.9-7.5,2.4-14.7-3.3-18.8
		c-16.1-11.7-36.4-16.2-53.7-25.8c-16.8-9.2-34.5-17.3-51.7-26.2c-10.7-5.5-20.8-11.9-31.3-17.6c-5.9-3.2-12.3-5.7-18.3-8.8
		c-6.4-3.2-12.6-6.7-18.6-10.5c-2-1.4-7.5-4.4-0.2-6.9c0.5-0.2,0.2-2.8-0.2-4.2c-5.6-21.2-11.1-42.5-16.9-63.7s-11.7-42.4-17.5-63.5
		c-2.4-8.6-4.8-17.2-7.3-25.8c-2.4-8.1-12.3-8.8-17.2-14.5l-2.5,1.3c15.4,56.5,30.7,113,46.5,170.9c-11.5-6.1-21.9-11.5-32.2-17.2
		c-16.5-9.1-33-18.2-49.1-27.8s-32-19.8-47.9-29.8c-10.3-6.5-21-12.7-30.8-19.7c-20-14.2-40-28.5-59.2-43.6
		c-18.1-14.2-35.3-29.2-52.7-44c-9.1-7.8-18-15.8-26.8-23.9c-1.5-1.6-2.4-3.8-2.5-6c0-0.7,3.3-2.1,5.1-2.2c13.8-0.2,27.8-1.2,41.5,0
		c28.2,2.6,56.4,6.3,84.5,10c31.7,4.1,63.8,6.9,94.4,16.1c10.2,3.2,20,7.4,29.4,12.5c25,13.4,49,28.5,76.2,38.2
		c16.6,5.9,33,11.9,47,22c19.1,13.8,36.1,29.2,49,47.7c11.5,16.5,23.2,33,33,50.2c7.2,12.7,12.1,26.6,17,40.2
		c5.2,14.2,9.8,28.6,13.6,43.2c3.9,14.9,6.9,30.1,9,45.4c1.5,11.2,0.4,22.7,1.3,34c1.9,24.4,3.9,48.7,6.7,73c1.2,10,4.6,19.9,7,29.9
		c0.6,1.9,0.6,4,0,5.9c-1.4-3.1-2.8-6.3-4.7-10.7l-31.1,18.9c1,0.6,1.6,0.8,1.9,1.2c1.4,2.3,2.8,4.6,4.1,7
		c-3.4,0.5-7.2,2.1-10.1,1.2c-4.8-1.5-7.8-2.3-11.9,1.7c-4.6,4.5-10.9,7.6-16.3,11.5c-9.2,6.6-18.4,13.4-27.5,20.1
		c-5.2,3.8-3.6,9.3-3.2,13.8c0.9,12.2-7.3,18-17.9,22.7c-3.8,1.7-6,1.3-6.8-2.9c-0.7-3.5-2.4-6.8-4-11.3c-1.4,1.8-2.4,2.5-2.4,3.2
		c-0.1,5.6,0,11.2,0.1,16.8c0,4-8.6,12.3-12.8,11.8c-1.6-0.2-3.4-2.2-4.1-3.7c-0.9-2.1-1-4.5-1.3-6.8c-0.3-2.1-0.4-4.2-0.6-7
		c-2.5,0.5-4.8,0.4-6,1.3c-23.7,17.3-48.5,32.8-74.4,46.7c-0.3,0.2-0.4,0.6-1.1,1.6c2.5,1.7,5,3.6,7.8,5.2c3.5,2,6.5,4.4,4.6,8.4
		c-2.5,5.2-7.2,7.2-11.9,5.2c-4.5-1.9-8.8-4.1-13-6.6c-3-1.9-4.7-2.4-8.4-0.2c-17,9.8-34.5,19-51.8,28.5c-5.7,3.2-10.9,6.9-15.8,10
		c1.2,2.4,3.9,5.3,3.2,6.8c-1.7,3.6-5.9,3.9-10,2.6c-6.7-2.2-11.9,0.7-17.1,3.8c-24.8,14.7-49.6,29.4-74.6,43.7
		c-9,5.2-18.8,9.2-28.3,13.8c-0.2,0.1-0.4,0.2-0.6,0.3c-14.4,7.9-28.8,15.8-43.3,23.6c-5.5,3-11.2,5.7-16.6,8.8
		c-1.6,0.9-2.7,2.6-3.9,3.8c-15.6,4.8-28,14.7-41.7,22.3c3.2,3.4,6.4,6.4,9,9.7s0.2,7.1-4.5,6.8c-4.7-0.3-9.4-1-14-2.2
		c-7.6-2-14.2-2.2-21.3,2.5c-18.1,12.1-37.1,23.2-55.5,34.9c-11.2,7.2-21.8,15.2-33.1,22.3c-15.3,9.7-31,19-46.5,28.5
		c-5.4,3.3-10.9,6.5-15.7,10.3c-1,0.8,0.6,4.2,1,6.5c-12-3.2-25.1-7.4-38.5-10.2c-13.2-2.7-25.6-7.4-38.7-10
		c-13.9-2.8-27.5-6.5-41.3-9.4c-13.6-2.9-27.2-5.2-40.9-7.9c-13.8-2.7-27.7-5.5-41.5-8.2c-13.7-2.7-27.3-5.3-41-7.9
		c-13.9-2.7-27.7-5.2-42.9-8c0,5.5-0.5,10.2,0.3,14.8c0.3,1.5,3.7,3.4,6,3.8c6.1,1.2,12.4,1.8,18.6,2.3c3.4,0.3,6.8,0,10,0l-3.8,2.6
		c3.5-0.2,5.4-0.6,7.2-0.4c7.7,1,16.2,0.7,22.6,3.8c4.3,2.1,8.1,1.7,12,2.5c12.3,2.7,24.6,5.3,36.9,7.8c7.6,1.5,15.4,2.3,23,4
		c4.3,0.9,8.1,3.4,12.3,4.4c20.6,4.8,41.2,9.5,61.9,14.1c14.7,3.2,29.5,6.1,44.2,9.2c2.4,0.5,4.9,1.8,7.3,1.7
		c5.1-0.3,10.9,1.9,15-2.9c0.4-0.5,2.3-0.1,4.5-0.1c-4.9,4.5-8.9,7.7-15.8,5.5c-1.7-0.5-4.7,0.5-6.4,1.6
		c-13.9,9.9-27.7,19.9-41.3,30.1c-13.7,10.4-27,21.2-40.7,31.6c-8.6,6.5-17.6,12.6-26.5,18.8c-6.3,4.4-12.4,9-18.8,13.3
		c-12.8,8.7-25.5,17.4-38.5,25.9c-8.4,5.4-17.2,10.2-25.8,15.4c-1,0.6-1.6,1.7-3.7,4.1c5.4-0.6,9-1.2,12.6-1.3
		c14.9-0.5,29.8-1.2,44.6-1.3c6.9,0.1,13.7-2,19.5-5.9c11.1-7.5,21.9-15.3,32.9-22.9s22.5-14.8,33.2-22.7c10-7.4,19-15.9,28.9-23.4
		c15.2-11.3,30.8-22.2,46.3-33.3c4.7-3.4,9.7-6.5,14.4-10c2.9-2.2,5.9-4.2,3.4-8.7c-1.8-3.2,1.3-5.9,6.8-6.4
		c-3.3,7.6,2.9,9.5,8.8,10.8c13.8,3.1,27.8,5.5,41.5,8.6c14.1,3.2,28,7,42,10.5c15.1,3.8,30.3,7.3,45.4,11.3
		c26.4,6.9,53.3,12.6,78.7,21.7c20,7.1,41.2,9.7,61.2,15.9c26.3,8.2,52.7,16.4,78.3,26.3c18.3,7.1,35.3,16.9,52.9,25.4
		c4.6,2.2,9,5.1,13.9,6.2c5.5,1.2,11.5,0.8,17.3,1c2.6,0.1,5.2,0,10,0c-3.6-3.5-5.8-6.3-8.6-8.3c-15.7-11.3-33-20.2-51.4-27.7
		c-11.2-4.5-22-10.1-33.2-14.6c-7.4-3-15.3-4.8-22.9-7.6c-6-2.2-11.8-4.9-17.8-7.3c-3-1.2-6.3-1.8-9.4-2.8
		c-8.3-2.5-16.5-5.4-24.9-7.6c-14-3.7-28.2-6.8-42.1-10.5c-13.1-3.5-25.9-7.5-38.9-11.1c-8.5-2.3-17.2-4.3-25.8-6.5
		c-18.6-4.6-37.3-9.3-56-13.8c-26.3-6.3-52.7-12.5-79-18.8c-10.2-2.5-20.4-5.1-30.9-7.7c0.4-0.5,0.8-1,1.3-1.4
		c13.5,6.1,20.9-3.5,28.9-9.4c28.2-20.4,57.3-39.7,87.5-57.7c17-10.1,33.8-20.4,51-30.2c27-15.4,54-30.8,81.4-45.7
		c12.3-6.8,25.5-12.3,38.1-18.7c12.2-6.3,24.1-13.1,36.2-19.6c15.7-8.4,31.6-16.4,46.9-25.2c22.3-12.8,44.1-26.4,66.3-39.3
		c10-5.8,20.5-11,30.7-16.5c11.5-6.2,22.9-12.4,36.2-19.7l-3.2,9c3.5,1.9,8.5,4.6,13.4,7.4c13.4,7.4,26.7,15.2,40.3,22.2
		c6.2,3.1,12.8,5.6,19.5,7.5c14.3,4.2,26.3,11.9,38.2,19.7c1.4,0.9,2.2,2.6,3.1,4c0.1,0.2-1.6,1.7-2.2,1.6c-2.2-0.5-4.7-1-6.1-2.3
		c-2.2-1.9-3.6-4.5-6-6.6c6.7,50,8.2,100.3,16.9,150l1.6-1.1c2,0.6,4.1,1.2,6.1,1.9c2.3,0.8,6.1,2.6,6.5,2.2c2-2.2,4.4-5.2,4.2-7.8
		c-1.2-13.8-3.2-27.5-5-41.2c-1.8-13.4-4-26.7-5.6-40.1c-2-16.2-3.5-32.5-5.4-48.8c-0.3-2.3-1.5-4.5-2.8-8.2
		c2.9,0.5,5.3,0.6,7.3,1.4c9.4,3.6,19,7,28,11.1c14.1,6.5,27.6,13.8,41.7,20.2c14.9,6.8,30,13.2,45.2,19.4
		c14.1,5.8,28.4,11.5,42.8,16.9c21.8,8.2,43.8,16.1,65.8,24.2c17.7,6.5,35.3,13.3,53.2,19.6c10.3,3.7,21,6.7,31.4,10
		c4,1.3,8,2.7,12,4.1c3.7-6.9,2.4-9.3-4.8-11.8c-11-3.8-21.7-8.1-32.6-12.1c-10.1-3.6-20.3-7-30.4-10.6c-4.6-1.6-9.1-3.5-13.8-5.1
		c-7.8-2.7-15.8-7.8-23-8c-10.1-0.2-15.2-7.1-23.8-8.7c-8.3-1.6-16-5.8-24-8.9c-20.2-7.9-40.4-15.7-60.5-23.7
		c-24.5-9.8-49-19.7-73.2-29.9c-8.8-3.7-16.6-9.1-25.4-12.8c-4.4-1.9-9.8-1.8-15-2.6c0.3-19.4-4.2-39.6-6.8-60s-3.1-40.9-4.6-62.5
		c-5.4,2.9-8.8,4.8-12.3,6.6c-6.3,3.3-6,8.7-5.5,14c1.5,14.9,3,29.8,4.8,44.7c1.3,10.7,2.6,21.3,4.7,31.9c0.8,3.9,3,7.3,6.1,9.7
		c5.3,3.7,7,8.9,10.1,13.6c0.2,0.3-0.3,1-0.8,2.4c-1.6-1-3.7-1.6-4-2.5c-1.6-6.3-7.7-8.5-13-11.4c-24.1-12.9-48.2-25.7-72.4-38.5
		c-6.5-3.5-12.8-7.1-19.3-10.7c14.2-9,28.2-17.6,41.8-26.5s26.7-18,40.1-27c17.4-11.6,35-22.9,52.2-34.7
		c8.2-5.7,15.5-12.5,23.5-18.4c10.3-7.5,21-14.5,31.5-21.8c3.2-2.2,7-4.3,9.3-7.2c1.6-2,1.5-5.3,1.6-8c-0.1-3.4-0.4-6.8-0.8-10.1
		l2.2-0.1l2.2,18.4c0.9,7.3,1.5,14.7,2.7,22c1.4,8.1,3.3,16.1,5.1,24.2c2.6,11.7,4.3,23.5,7.9,35c7.1,22.5,13.6,45.3,23.3,66.9
		c12.4,27.6,30.3,52.8,50.5,76.7c10.7,12.7,22.9,24.1,36.3,33.9c11.7,8.7,25.4,15.3,38.7,22.2c12.6,6.5,25.5,12.7,38.8,18.1
		c10.9,4.4,22.4,7.5,33.8,10.8c4.4,1.3,5.2,3.3,5.3,7.2c0.6,18.4,1.6,36.7,2.4,55.1c0.4,8.5,0.6,17,1.5,25.4
		c1.4,12.8,3.3,25.5,5.2,38.2c1.3,8.8,3,17.6,4.6,26.3c1.2,6.1,2.6,12.2,3.8,18.3c2,10.2,3.8,20.6,6,30.8c3,13.7,6,27.5,9.4,41.1
		c1,4,9.3,6.1,15.5,4.2c5.5-1.7,2.8-5.2,2.1-8.3c-4.7-20.6-9.2-41.2-14.1-61.8c-2-8.5-5-16.8-6.9-25.2c-1.7-7.5-2.6-15.2-3.6-22.8
		c-1.9-14.5-3.9-29-5.3-43.5c-1.9-19.4-3.3-38.8-4.9-58.2c-0.4-5-0.2-10-0.7-14.9c-0.1-1.2-1.6-2.6-2.8-3.4c-1.9-1.1-3.9-2-6-2.7
		l0.4-1.4c3.2,0.5,6.4,1.1,9.6,1.4c10.8,1.1,21.7,3.3,32.4,2.9c22.7-0.7,45.7-1.4,68-4.7c19-3,37.7-7.8,55.8-14.4
		c28.5-10.2,55.9-22.7,84.1-33.6c26.8-10.4,51.2-24.2,75.5-38.3c9.8-5.7,20.3-10.6,30.2-16.3c5.1-2.9,9.5-6.8,14.3-10.2
		c13.8-9.8,27.5-19.7,41.5-29.4c12.2-8.4,25.9-15.5,36.6-25.1c14.9-13.4,33.1-22.7,49.5-34.2c20.4-14.2,42.1-27,63-40.7
		c15.8-10.4,30.9-21.4,46.6-31.9c9.4-6.3,19.3-11.9,29.1-17.8c4-2.4,8.1-4.6,12.1-6.9v-11.6c-6.2,3.9-12.5,7.8-18.8,11.7
		c-24.7,15-49.1,30.3-74.1,44.9c-42.6,24.7-82.7,52.3-122.5,80.3c-13.7,9.6-27.3,19.3-40.8,29.1c-7,5.1-13.3,10.9-20.5,15.9
		s-14.9,9-22.4,13.5c-14.3,8.5-28.3,17.4-42.9,25.5c-13.9,7.8-28.1,15.3-42.6,22.3c-17.1,8.2-34.5,15.8-52,23.4
		c-13.7,5.9-27.3,12.2-41.6,16.8c-13.4,4.4-27.7,6.8-41.6,10c-8,1.8-16,3.7-24.1,5c-29.8,4.5-59.8,8.2-90.1,3.6
		c-3.6-0.5-7.3-0.5-13.2-0.9c10.4-5.2,8.2-13,7.5-19.5c-2.2-20.6-1.3-41.2,0.3-61.8c2.1-27.8,2.7-55.8,5.5-83.5
		c1.9-19.5,6.5-38.9,9.6-58.3c0.9-5.7,0.6-11.6,1.5-17.3c3.6-23.7,7.4-47.4,11.4-71c0.9-5.1,3.5-10,4.6-15.1
		c2.3-9.8,3.6-19.8,6.2-29.5c6.5-24,13.2-47.9,20.6-71.6c9.8-31.5,19.9-63,31-94.3c8.7-24.5,17.8-48.9,29-72.5
		c7.1-14.9,18.3-28.4,28.1-42.4c8.3-11.8,16.9-23.4,25.8-34.9c18.3-23.5,38.7-45.3,64.8-62.6c22.2-14.7,44.8-29.2,71.4-36.9
		c15.6-4.5,32.5-6.3,49-6.8c21-0.7,42.1,0.6,63.1,2.2c33.1,2.6,66.2,5.6,99.1,9.4c26.4,3,52.6,7.7,78.9,11c13.2,1.7,26.6,2,39.9,2.9
		V67.3c-6.1-0.4-12.2-0.6-18.2-1.4c-27.7-3.7-55.3-7.8-83-11.3c-14.7-1.9-29.6-3-44.4-4.5c-17.4-1.7-34.8-3.3-52.2-4.9
		c-5.4-0.5-10.9-0.9-16.3-1.4c-16.5-1.4-33-3.7-49.6-4.1c-23.2-0.7-45.7,4.2-68,8.8c-8.6,1.8-16.6,5.6-24.7,8.7
		c-6.8,2.6-13.8,5-19.9,8.6c-24.5,14.3-45.4,32.3-65.6,50.9c-13.1,12.2-25.6,25.2-37.3,38.8c-15.2,17.4-30.1,35-40.5,55.2
		c-6.4,12.6-14.6,24.6-20.4,37.4c-7.1,15.4-12.8,31.3-18.6,47.2c-3.4,9.3-5.6,18.9-8.6,28.2c-4,12.5-7.7,25.2-12.7,37.5
		c-7.8,19.2-14.4,38.8-19.8,58.8c-5.5,20.5-10.8,41.1-15.6,61.8c-5,21.6-9.5,43.2-13.7,64.9c-3.4,17.2-6.3,34.5-8.9,51.7
		c-2.2,14.8-3.1,29.8-5.8,44.5c-2.8,15.1-5.9,30.1-6.7,45.4c-0.8,14.3-2.1,28.6-3.3,42.9c-0.6,7.1-2.3,14.1-2.4,21.2
		c-0.3,17.1,0,34.2,0.1,51.4c0,7.4,0,14.8,0,22c-9.6-3.3-21.1-6.1-31.3-10.9c-20.2-9.5-39.7-20.2-59.5-30.4
		c-21.2-11-37.5-26.3-50.8-44.3c-4.4-5.9-8.8-11.9-13.3-17.8c-6.1-7.9-13.3-15.3-18.2-23.8c-8.6-14.9-17.1-30-23.3-45.8
		c-7-17.7-12-36.1-17-54.4c-4.5-16.3-7.7-32.8-11.6-49.2c-3.2-13.4-4.1-27.4-11.4-39.9c-0.6-1-0.2-2.5-0.3-3.7l1.9-0.2
		c0.6,2.8,1.2,5.6,2,9.2c2.8-1.5,5.3-2.6,7.5-4c7.2-4.7,14.3-9.5,21.5-14.2c12.5-8.2,25.5-15.9,37.5-24.7
		c14-10.3,27.3-21.5,40.7-32.5c15.1-12.3,30.6-24.2,44.8-37.2c22.6-20.6,44.5-41.9,66.4-63.1c8.6-8.3,17.5-16.6,24.7-25.9
		c13.3-17.1,25.6-34.9,37.8-52.6c10.3-14.9,20.2-30.1,30-45.4c5.8-9.1,10.5-18.7,16.9-27.4c9.6-13.2,20.1-26,30.5-38.8
		c11.3-13.9,22.2-28.2,34.8-41.2c10.8-11,22.6-21,35.1-30c10-7.3,22.2-12.4,32.6-19.3c24.2-16,51.2-25.9,80.7-31
		c10.9-1.9,21.6-4.9,32.5-6c12.6-1.2,25.3-1.6,38-1.2c20.8,0.6,41.5,2.5,62.2,3.1c27.9,0.9,55.8,1.6,83.7,1.4
		c14.1-0.1,28.4-2,42.3-4.2c5.2-0.8,10.3-4.1,14.3-7.4c5.4-4.5,5-8.5,0.6-12.8L1536.4,0z"/>
	<path class="st2" d="M1920,250.5c-7,0.9-14.1,1.8-21.1,2.8c-24.1,3.5-47.3,11.5-68.5,23.7c-11.2,6.4-21.7,14-33.2,19.8
		c-16.5,8.3-30.5,19.4-43.8,30.8c-20,17.2-32.1,38.5-33.5,63.4c-0.9,15.4,0.6,30.3,16.8,41.5c13.3,9.1,25,10.6,38.6,1.2
		c8-5.6,9.8-13.1,5.3-22.2c-4.2-8.5-9.6-11.1-20.3-10c-2.8,0.4-5.7,0.6-8.5,0.5c-5.8-0.5-8.8-4.9-6.5-8.9c4.8-8.3,15.4-14,25.2-13
		c14.1,1.5,23.7,6.2,27.2,17.4c2.8,9,3.2,17.7,0.1,26.7c-6.8,20.3-33.2,33.7-57.4,24.1c-9.5-3.8-14.9-10.9-17.8-18.8
		c-3.9-10.6-6.5-21.7-7.7-32.9c-0.7-7.2,2.4-14.7,3.9-22.1c3.9-19.3,15.8-35.3,31-48.4c14.7-12.7,31.6-23.5,48.7-33.8
		c20.1-12.1,38.9-26.2,62.4-33.7c19.3-6.2,39-10,59.2-12.6L1920,250.5z M1782.9,401.5c-1.2-1.3-0.9-3.5-1.9-5
		c-1.3-2-2.9-4.3-5.1-5.2c-5.9-2.5-15.3-0.3-19.7,4.2c-0.6,0.6-1.5,1.9-1.2,2.4c0.8,0.9,1.7,1.5,2.8,1.9c0.6,0.2,1.3,0.2,1.9,0.1
		c17.2-0.8,25.1,5.7,25.6,22.1C1789,416,1787.3,406.5,1782.9,401.5L1782.9,401.5z"/>
	<path class="st2" d="M189,0c1.5,3.1,3.1,6.2,4.9,9.8l4.5-3.1c0,2.8,0.6,5.2-0.1,7.1c-2.2,5.8-4.8,11.6-7.6,17.2
		c-3,6-6.7,11.8-9.6,17.9c-5.8,12.4-10.3,25.3-16.9,37.3c-9.3,17-17.4,34.5-29.3,50.4c-2.8,3.8-1.6,10.4-9.5,10.9
		c-0.4,0-1.2,1.5-0.9,2c1.6,3.7-1.2,5.1-4,6.9c-1.2,0.8-2.9,3.1-2.5,3.6c4.3,5.4-2.4,8.1-3.4,13.7l-1.6-4.6
		c-2.4,2.1-4.6,4.9-3.9,6.8c2.2,6.3-1.7,6.7-5.1,6.4l-12.8,26.1l-2.2-6.2c-0.3,7.2-1.1,13.8-10,17.8l1.8-4l-1.9-0.4l-2.4,7.9
		l-21.6,27.3l-1.8-0.6c0.2-1.3-0.2-2.9,0.5-3.9c1.8-2.7,4.3-5.1,6.2-7.8c5.8-8.6,11.7-17.1,17.1-25.9c11.8-19.5,23.2-39.1,34.9-58.6
		c2.3-3.9,5.7-7.3,7.6-11.3c7.9-16.4,15.1-33.1,23.1-49.5c4.3-8.8,10.3-16.8,14.7-25.6c6.6-13.3,12.5-26.9,18.6-40.3
		c4.1-9,7.9-18.1,11.9-27.2L189,0z M123.6,140.3c6.9-3.5,11.3-11,10.9-20C131,126.7,127.6,133.1,123.6,140.3z M138.1,112.2
		c-0.8,1,0.1,3.1,0.3,4.8l1.9,0.2l8.7-15l-1.2,0.1C144.5,105.6,141,108.7,138.1,112.2z"/>
	<path class="st2" d="M765.1,0c5.9,19.3,11.7,38.6,17.9,57.8c1,2.9,3.9,5.4,5.9,8.1l2.1-0.7c-0.9,1.2-1.8,2.5-3.1,4.3l17.7,9.8
		l2.1-1.1c-9-26-14.7-52.7-25.4-78.3H765.1z"/>
	<path class="st2" d="M1380.8,0c8.9,18.1,20.2,35.2,31.9,52c3.5,5,9,9,13.8,13.6c5.3-7.2,5.5-11.7,0.2-16.9
		c-3.6-3.5-7.1-6.6-8.9-11.5c-1.9-5.4-6.1-10.1-8.7-15.4c-2.4-4.9-9.3-8.1-7.3-14.9c0.2-0.8-2.9-2.4-4.4-3.6
		c4.8-3.4,6.3-2.9,8.8,1.8c1.9,3.6,4.6,7,6.8,10.5c0.7,1,1.2,2.1,1.5,3.2c3.1,11.5,12.5,19.9,19.4,29.5c0.7,1,3.1,1.1,4.7,1.6
		c0-1.7,0.7-4.1-0.3-4.9c-12.3-9.7-16.2-23.5-23.1-35.8c-1.7-3.1-3.6-6.1-5.5-9.1L1380.8,0z"/>
	<path class="st2" d="M737.5,0c3.5,10.9,7.3,21.7,10.5,32.6c2.9,10,5.2,19.9,17.5,24.8c1.7,0.7,2.6,3,3.8,4.5l2.7-1.2
		c-0.5-3.1-1.2-6.2-2-9.2c-5.5-17.2-11.1-34.3-16.7-51.5H737.5z"/>
	<path class="st2" d="M1920,1046.2l-114.1,3.2l-0.2,1.2c1.9,0.4,3.8,0.6,5.7,0.8c26,0.8,51.9,1.7,77.8,2.3
		c10.2,0.2,20.5-0.3,30.8-0.5V1046.2z"/>
	<path class="st2" d="M1920,555.6c-3.4-0.2-6.9-0.6-10.3-0.5s-7.8-0.5-10.6,0.9c-6.4,3.2-12,7.5-18,11.4l0.5,1.7l38.4,2.8V555.6z"/>
	<path class="st2" d="M460.6,0c3.2,4.9,6,10,9.8,14.5c1.9,2.3,5.6,3.4,9.6,5.7l-4.5,0.8l2.1,2.5l12.9-6.3L477.8,0H460.6z"/>
	<path class="st2" d="M1920,1023l-13.3-6.3l-1.3,2l14.6,7.8L1920,1023z"/>
	<path class="st2" d="M288.3,263.9c-0.1,0.7-0.2,0.9-0.1,1c7,11.2,7.1,11.2,19.5,4.7c20.8-10.9,43.2-18.3,66.5-23.9
		c8.4-2,16.8-4.4,25.4-5.5c11.3-1.4,22.7-1.5,34-2.6c13-1.3,26-3.2,39.1-4.5c5.7-0.6,11.5,0.1,17.3-0.3c25.5-1.9,50.4,2.4,75.3,6.2
		c25.3,4,50.3,9.2,74.4,17.3c14.5,4.7,28,11.9,39.9,21.5c3.5,2.9,7.7,5.1,11.2,8c28.6,22.7,42.8,50.2,38,84.7
		c-1.5,10.6-4.3,20.7-10.2,29.5c-5.4,7.9-13.5,14.6-21,21.2c-19.3,16.9-42.6,28.9-67,38.8c-22,8.9-45.2,15.3-68,22.7
		c-1.8,0.6-3.9,0.5-5.8,0.7c-1.3,0.2-2.7,0.4-4,0.6c0.5,1.3,0.5,3.2,1.6,3.9c5.8,3.7,11.6,7.9,18.1,10.2c3.4,1.2,8.6-0.5,12.7-1.7
		c7.4-2.3,14.4-5.4,21.7-7.9c10.7-3.7,21.8-6.5,32.1-10.8c13.4-5.6,26.3-12.2,39.2-18.6c22.8-11.3,40.5-27.2,53.1-47.4
		c4.3-6.8,9.7-13.3,12.3-20.5c3.1-8.6,5-17.7,5.6-26.8c0.7-9.7,0.8-19.8-1.3-29.3c-2.3-10-5.9-20.4-11.8-29.1
		c-7.2-10.7-16.5-20.6-26.4-29.5c-7-6.4-16.2-11.1-25.1-15.6c-12.8-6.6-26-12.7-39.3-18.5c-4.8-2.1-10.4-2.8-15.6-4.2
		c-15.4-4-30.6-9.6-46.3-11.7c-24.4-3.3-49.1-5-73.8-6.1c-21.3-1-42.9-1.4-64.1,0.1c-20,1.4-39.7,5.1-59.5,8.4
		c-13,2.1-25.9,4.9-38.6,8.1c-5,1.2-9.4,4.4-14.2,6.5c-13.8,6.1-27.7,12-41.5,18.1C290.3,262.2,289.2,263,288.3,263.9z"/>
	<path class="st2" d="M628.8,900c8.2,2.3,14.6,5.9,20.6,5.5c8-0.6,15.8-4.3,23.7-6.6c3.9-1.1,8-1.9,11.7-3.3
		c33.6-12.8,69.2-17.5,105.4-20c35.1-2.5,70.1-2.7,104.9,2.4c23,3.3,46,7.2,67,16.8c3.4,1.5,7.9,1.1,11.8,1.7
		c0.8,0.2,1.6,0.6,2.3,1.1c11.9,6.3,23.7,12.8,35.7,19c14.6,7.6,29.5,14.7,43.8,22.7c8.8,4.9,16.6,11.2,24.8,16.9
		c22.1,15.6,44.7,30.7,66.1,47c18.6,14.3,36.1,29.8,53.5,45.3c11.2,10,20.9,21.2,32.4,30.9c3.7,3.1,10.8,3.2,16.3,4.6
		c0-1.7,0.9-4-0.1-5c-8.5-9-17.1-18.1-26.2-26.7c-18.5-17.5-36.4-35.6-56.3-51.8c-21.4-17.3-44.4-33.2-67.5-48.8
		c-15.3-10.4-31.2-19.9-47.6-28.6c-27.9-14.9-56.3-29.2-84.7-43.3c-4.3-2.2-10.7-6.7-14.5,1.5c-0.3,0.6-1.6,1.3-2,1.2
		c-7.1-2.7-16.5,0.3-22-6.8c-0.9-1.1-4-2.3-5.1-1.8c-9.8,4.3-17-2.1-25.2-4.2c-0.7-0.3-1.3-1-1.4-1.8c-0.8-7-7.4-7.4-12.7-7.4
		c-30.5,0.2-61,0.3-91.5,1.5c-17,0.7-34.4,2-50.7,5.8c-22.9,5.4-46.5,8.6-68.4,17.5c-10.7,4.4-23,5.9-34.4,9.1
		C635.5,895.2,633.2,897.4,628.8,900z"/>
	<path class="st2" d="M283.1,281.7c-0.3-0.5-1.6-2.3-3-4c-4.5-5.4-5.4-5.4-10.1,0c-9.5,10.7-20,21-28.4,32.3
		c-5.1,6.9-7.8,15.5-10.6,23.5c-2.6,7.1-4.4,14.5-5.2,22c-1.6,18.8,3.7,36.4,13,53.2c13.7,25,35.6,43,62,57.3
		c15.5,8.4,30.8,17.5,47.3,24c21.4,8.4,43.6,15.4,67.5,16.7c7.5,0.4,14.8,3.1,22.3,3.8c9.9,0.8,19.9,0.5,29.8,0.9
		c3.6,0.1,7.2,1.4,10.6,1.2c16-1.3,31.9-2.9,47.9-4.5c6.1-0.6,12.1-1.5,18.1-2.4c1.3-0.3,2.5-1,3.3-2.1c0.3-0.4-0.9-1.9-1.7-2.5
		c-4.1-3.1-7.9-6.7-12.5-9.1c-2.5-1.3-6.4-1.3-9.5-1c-23.7,2.6-47.4,2.6-71.4,2.2c-13.5-0.2-26.9-0.5-40-2.4
		c-20.9-3-41.2-8.6-59.9-17.4c-19.6-9.2-38.6-19.4-57-30.2c-8.3-4.9-14.8-12.4-21.7-19c-7.5-7.4-12.9-15.8-18.4-24.6
		c-16.6-26.5-14.4-52.6-1-78.4C261.5,307.5,272.8,295.6,283.1,281.7z"/>
	<path class="st2" d="M198.6,167.7c-3.6,4.7-5.5,7.8-0.7,13c8.4,9.1,14.9,19.6,23,29.1c8.9,10.5,18.9,20.4,28.1,30.6
		c3.7,4.1,6.2,9.1,10.3,13c5.2,4.9,12.8,8.3,16.7,13.8c3.5,5,9,7.8,12.8,12.3c7.1,8.4,14.5,16.6,22.3,24.6
		c6.3,6.5,13.5,12.5,19.8,19c1.8,2,2.6,4.6,2.2,7.2c-2.2,9.1,3.1,19.1,13,22.5c4.4,1.5,9,2.4,15.4,4l-25.1-25.3l1.1-1.4
		c1.6,0.5,3.9,0.5,4.8,1.5c4.8,4.8,8.5,10.5,13.8,14.7c10.2,8.1,16.7,18.9,27.7,26.5c14.3,9.9,26.7,21.9,40.1,32.8
		c10.1,8.2,20.4,16.4,31,24.1c3.3,2.4,8,3.3,12.2,4.9c-0.3,9.1,8.8,12.2,14.9,16.9c11.9,9,24.3,17.6,36.7,26.1
		c10.4,7.1,21.2,13.8,31.7,20.9c3,2.1,5.1,5.2,8.1,7.4c11.7,8.6,23.5,17.2,35.5,25.4c12.5,8.6,25.2,17.1,38.1,25.3
		c13.4,8.5,27.4,16.2,40.8,24.6c13.2,8.3,26,17,39.2,25.4c5.8,3.6,12.1,6.6,17.9,10.2c7.6,4.7,15,9.7,22.5,14.7c1.3,1,2.7,2,4.1,2.8
		c10.3,5.1,20.8,10.1,31,15.3c3.1,1.6,5.2,1.6,7.2-1.1c2.1-3,0.1-4.1-2.6-5.8c-24.2-14.9-48.2-30-72.3-45.1
		c-12.8-8-25.6-16.1-38.5-24c-10-6.2-20.2-12.3-30.2-18.5c-14.9-9.1-30-17.9-44.7-27.3c-19.5-12.5-38.9-25.1-57.8-38.2
		c-12.3-8.5-23.6-18.3-35.6-27.2c-13.4-9.9-27.3-19.2-40.5-29.4c-22.8-17.5-45.5-35.3-67.8-53.4c-13.3-10.8-25-23.1-38.5-33.7
		c-12-9.5-22.6-20-33.3-30.5c-6.7-6.5-12.5-13.8-19.1-20.4c-5.1-5.1-11.3-9.5-16.3-14.8c-12.2-12.6-24-25.5-35.9-38.4
		c-13.4-14.6-26.7-29.3-39.7-44.2c-5.6-6.4-10.4-13.3-15.5-19.9C204.1,174.6,201.6,171.5,198.6,167.7z"/>
	<path class="st2" d="M1286.2,852.1c-2.1,6.4-0.3,11.2,5.1,15.4l-3.1,0.6c0.2,0.3,0.2,0.8,0.5,0.9c13.2,4.9,26.4,9.8,39.7,14.5
		c23.2,8.3,46.4,16.9,69.8,24.8c22.2,7.5,44.5,14.5,67,21.5c18.3,5.7,36.8,11.1,55.3,16.2c11,3,22.4,5.1,33.5,7.8
		c3.8,0.9,7.3,2.6,11,3.5c22.7,5.8,45.4,11.7,68.2,17.3c10.7,2.6,21.5,4.6,32.1,7.4c14.4,3.8,28.6,8.3,42.9,12.3
		c7.9,2.2,16,3.7,23.8,5.9c16,4.5,31.8,9.5,47.8,14c10.3,2.9,20.9,5.1,31.2,7.9c18,4.9,36,9.9,54,15.1c12.4,3.6,24.7,6.5,38,4.2
		c4.1-0.7,8.5-0.1,12.7-0.1c-26.5-7.5-52.9-15.2-79.5-22.5c-13.6-3.7-27.6-6.2-41.1-10c-17.2-4.8-34.1-10.6-51.2-15.7
		c-14.2-4.2-28.6-8.1-42.9-12c-24.5-6.7-49.1-13.2-73.6-19.7c-3.2-0.8-6.8-0.4-10.1-1.2c-2.6-0.6-5-2-9-3.8
		c-4.9-0.8-12.1-1.2-18.8-3.1c-33.2-9.1-66.2-18.4-99.3-28c-5.8-1.6-11.3-3.9-16.6-6.7c-11.3-6.1-24.8-5.6-36.5-10.3
		c-0.6-0.2-1.3-0.3-1.9-0.5c-29.7-10.1-59.7-19.7-89.1-30.5c-17.5-6.4-34.2-14.5-51.3-21.8C1292.1,854.6,1289.4,853.5,1286.2,852.1z
		"/>
	<path class="st2" d="M1.1,456c-1.2,7.5-0.7,13,4.5,18.5c10.9,11.7,20.9,24.2,31.6,36c7.8,8.6,16.3,16.9,24.6,25.2
		s16.4,16.4,24.8,24.5c16.8,16,33.5,32,50.7,47.6c17.5,15.9,35.2,31.6,53.4,47c9.3,7.8,19.7,14.6,29.5,21.9
		c9.2,6.8,18.2,13.9,27.4,20.6c12.1,8.8,24.1,17.7,36.6,26.1c18.1,12.2,36.2,24.2,54.9,35.8c16.5,10.2,33.8,19.6,50.6,29.5
		c12.2,7.2,24.2,14.6,36.4,21.8c8.3,4.9,16.4,10.2,25.3,14.2c5.6,2.5,12.4,2.9,19.3,3.1c-0.8-1-1.3-2.2-2.4-2.8
		c-13.2-7.5-26.5-14.8-39.7-22.3c-8.5-4.8-16.7-9.9-25-15c-10.6-6.4-21.4-12.6-31.8-19.2c-28.9-18.5-57.9-36.8-86.2-55.8
		c-18.9-12.8-37.1-26.4-54.9-40.3c-24.4-19.1-48.8-38.4-72.1-58.5c-20.2-17.5-39.2-36.2-58.3-54.7c-17.2-16.6-34.1-33.4-50.5-50.6
		C35.1,493.2,21.4,477.5,7.3,462C5.6,460.1,3.6,458.5,1.1,456z"/>
	<path class="st2" d="M213.8,70.5l6.6-21.9l-2.4-0.7c-2.8,5.7-5.8,11.4-8.3,17.2c-1.1,2.6-0.9,5.8-2.4,8.2
		c-3.8,6.2-8.6,12-12.4,18.3c-4.2,7-7.8,14.3-11.8,21.5c-0.5,0.9-2.1,1.3-3.1,1.9c-0.4-1.1-1.4-2.5-1-3.3c4.1-8,8.5-15.8,12.7-23.8
		c1.2-2.6,2.2-5.3,3-8l-2-0.6c-5.2,10.1-10.1,20.4-15.8,30.3c-2.7,4.6-4.2,7.9,2.8,9.7c-4.7,6.6-9.2,12.6-13.4,18.8
		c-0.8,1.1-0.4,2.9-0.4,4.4c0,1.3,0.8,2.8,0.3,3.9c-3.7,7.5-7.4,15-11.7,22.3c-3.7,6.3-8.2,12.2-12.2,18.3
		c-3.7,5.7-7,11.6-10.6,17.4c-0.2,0.4-0.9,0.6-1.9,1.3c0.4-2.2,0.8-3.7,1.1-5.2l-2-0.6c-5.1,12-10.1,23.9-15.2,36.1l3.6-1.4
		c-6.7,8-7.7,19-17.8,24.8c-0.6,0.4-1.3,1.4-1.1,1.9c1.9,5.2-3,8.1-4.9,12c-0.2,0.6-0.3,1.2-0.4,1.9l5.6-0.4c-1,2.9-1.5,5.2-2.7,7.2
		c-3.5,6.1-7.6,12-10.8,18.3c-3.6,7.1-4,8-11.2,11L92.7,279l-2.4-1.6c-1.7,1.4-3.8,2.5-5.1,4.1c-4.1,4.9-8,10.1-11.4,15.4
		c-2.9,4.8-9.4,8.5-7.3,15.3c0.1,0.3-1.9,1-2.9,1.7c-1.2,0.8-2.8,1.5-3.5,2.6c-2.4,3.8-4.2,7.9-6.7,11.6c-1.6,2.4-4.5,4.2-6.1,6.6
		c-2.9,4.4-5,9.1-7.8,13.5c-3.3,5.2-7,10.2-10.4,15.1l6.6,1.6c-0.7,1.9-1,4.2-2.2,5.8c-3.5,4.4-7.4,8.4-11.1,12.6l0.5,0.1l-9.2,13.2
		l-1.5-2l-9.7,11.7c-0.6-0.3-1.3-0.7-1.9-1c1.1-2.8,2.9-5.5,3-8.3s-2.4-5.4-2.3-8.2c0.1-10.6-3.7-22,7.2-30.9
		c3.7-3.1,6.2-7.4,9.2-11.1c9.3-11.6,18.3-23.2,27.8-34.7c7.7-9.2,16.7-17.7,23.5-27.4c10.8-15.3,20.2-31.3,30.1-47.1
		c8.6-13.7,17-27.6,25.6-41.4c0.5-0.8,1.2-2,1.9-2.1c6.1-0.3,7.3-5.2,7.4-8.3c0.3-10.1,7.3-17.9,12.4-25.6
		c11.4-17.6,17.8-37.1,29.1-54.6c6.4-9.9,10.9-20.8,16.2-31.2c3.9-7.6,7.8-15.2,11.4-23c5-10.6,9.6-21.4,14.5-32.1
		c0.3-0.8,1.2-1.3,2.4-2.5c-0.2,2.4-0.4,4-0.5,5.5l1.2,0.5l3.6-4.6c4.6,1.5,4.4,3.7,2.4,7.5c-2.4,4.5-3.1,9.7-4.6,14.9l4.5-0.9
		c-2.3,7.3-4.1,14.2-6.7,20.9c-1.3,3.3-4.1,6.2-6.2,9.3L213.8,70.5z M85.2,267.3l2.4,1.4l21.2-28.7l-3.1-1.6
		C98.9,248,92,257.7,85.2,267.3z M10.5,388.4l4.4-14.8L3.1,386.7l1.8,1.7L10.5,388.4z M54,310.1l-2.3-1.3c-4,5.6-8,11.1-12,16.6
		l1.9,1.2L54,310.1z"/>
	<path class="st2" d="M839.5,284.3c18.8,98.6,45.1,195.8,57.7,295c10.3-0.7,17.3-7.4,16.2-15.8c-1.8-13.8-3.5-27.6-5.7-41.3
		c-2.1-12.9-4.9-25.8-7.2-38.7c-2.3-12.3-4.2-24.7-6.6-36.9c-2.2-11.1-4.9-22.2-7.5-33.3c-3.7-15.6-7.5-31.3-11.3-46.9
		c-3.4-13.9-7-27.8-10-41.8c-1.8-8.3-3-16.8-4.2-25.2c-0.9-6.6-4.5-10.3-12.3-10.9c-1.9-0.1-3.6-2-5.5-2.9
		C841.9,285,840.7,284.6,839.5,284.3z"/>
	<path class="st2" d="M488.5,848c23.5,11.2,46.6,23,70.5,33.4c22,9.6,44.9,17.7,67.2,26.8c14.6,6,28.7,12.8,43.2,18.9
		c10,4.2,20.5,7.6,30.6,11.7c17,6.8,33.8,14,50.7,20.9c23.1,9.5,46.4,18.7,69.3,28.5c8.7,3.7,16.8,8.5,25.2,12.7
		c17.1,8.5,34.1,17.2,51.5,25.2c23.8,10.9,46.5,23.3,67.2,38.3c6.9,5,13.9,9.9,20,15.6c5.2,4.8,10.6,5,17.8,3.1
		c-0.9-1.4-1.4-3-2.5-3.8c-20.3-15.5-40.8-30.8-64.2-42.8c-15.8-8.1-30.7-17.6-46.4-25.9c-12.5-6.6-25.5-12.4-38.5-18.3
		c-22.5-10.2-45.2-20.3-67.9-30.2c-19.1-8.3-38.1-16.8-57.7-24.4c-20.7-8-42-14.8-62.7-22.7c-16.2-6.2-32-13.3-48-19.9
		c-9.9-4.1-20-7.9-29.8-12.1c-9.6-4.1-19.1-8.5-28.5-13c-17.5-8.3-34.9-16.8-52.2-25.3c-5.3-2.6-9.7-1.1-14.2,1L488.5,848z"/>
	<path class="st2" d="M535.6,289.6c5.3,2,10.5,4.1,15.8,6c6.7,2.4,13.8,16,9.8,20.4s-8.7,8.9-14.2,11.4c-10.6,4.8-21.5,9.6-34.2,8.2
		c-0.2,0-0.4,0.1-0.7,0.1c-3.5-0.2-9.4-1.5-10.2-0.3c-2.9,4.6-4.3,9.9-6,15c-1.1,3.4-0.9,7.3-2.8,10.3c-3,4.9,0,6.1,4.1,5.8
		c10.4-0.9,20.7-2.4,31-3.6c5.6-0.7,11.5-0.7,16.7-2.4c11.6-3.6,23-7.8,34.3-12.1c2-0.8,3.4-3,4.7-4.7c6.7-9,13.4-18,19.8-27.1
		c4-5.7,3.2-10.5-3-14.3c-17-10.4-34.8-19.4-56.4-18.9c-3.2,0.1-6.4,2.9-9.6,4.4C535.2,288.4,535.4,289,535.6,289.6z"/>
	<path class="st2" d="M484.9,365.3c-4.5-7.4-8.4-14.2-12.7-20.8c-4.1-6.3-11.7-6.5-18.1-5.5c-13.4,2-26.2,0.1-39.1-2.2
		c-9.8-1.7-19.4-4.1-28.9-7c-10.6-3.3-12.4-7.3-9-16.8c1.7-4.7-0.5-7.3-5.6-9.1c-10.6-3.8-19.8-2.3-28.2,4.3c-3.7,2.9-6,5.3-1.4,9.4
		c8.3,7.3,16,15.1,24.2,22.5c7,6.3,14.5,12.3,21.5,18.7c5.7,5.2,13.3,6,20.4,6.4c21.6,1.3,43.2,1.9,64.8,2.5
		C476.6,367.7,480.3,366.2,484.9,365.3z"/>
	<path class="st2" d="M790.7,91.4c4.3,14.6,8.9,29.2,13,43.8c3.5,12.7,6.3,25.5,9.6,38.2c3.1,11.7,6.2,23.5,9.7,35.1
		c3.1,10.3,6.8,20.4,10,30.6c0.8,2.7,1,5.6,1.5,8.4c1,5.4,4.1,9.1,10,11.2c3.1,1.1,5.7,3.3,10.3,4.4c-0.7-4.5-1.1-9.1-2.1-13.5
		c-4.6-19.2-8.9-38.5-14.2-57.5c-3.8-13.8-9.2-27.3-13.5-41c-3-9.6-5.4-19.4-8.2-29.2c-2-7.1-4.3-14.1-6.4-21.1
		c-0.1-0.4-0.1-0.9-0.4-1.1c-6-3.4-12.1-6.7-18.2-10L790.7,91.4z"/>
	<path class="st2" d="M927.5,887.8c2.7,16.9,5.2,32.7,7.8,49.1c-0.3,0.5-1.8,2-1.6,3.4c1.3,11,3,22,4.4,33.1
		c1.5,12.3,2.8,24.7,4,37.1c0.4,4.1-0.1,8.3,0.3,12.5c0.8,9.6,7.3,16.2,15.9,21.3c1.4,0.8,4.1,1.2,5.4,0.6c1.1-0.5,1.6-2.9,1.5-4.4
		c-3.7-32.1-7.7-64.2-11.4-96.2c-1.8-15.1-3.2-30.2-4.6-45.3c-0.4-3.9-1.4-6.4-6.6-7C938.1,891.2,933.8,889.5,927.5,887.8z"/>
	<path class="st2" d="M536.9,423.9c1,1.5,1.5,3.3,2.5,3.6c8.4,2.9,16,8.9,25.6,7.4c5.6-0.9,10.9-3.5,16.3-5.5
		c25-9.1,50-18.5,72-32.8c10.7-7,19.5-16.7,25.4-28c4.8-9,5.1-18.2-1-27.1c-3.8-5.5-7.3-11.3-11.1-16.8c-0.8-1.2-2.7-1.9-4-2.8
		l-1.4,1c1.5,8.4,3.2,16.8,4.6,25.2c1.3,8.1-2.4,14.5-7.8,21.2c-13.6,16.9-33.7,25.5-53.7,34.3c-19.8,8.7-41.2,13.2-62.4,18.2
		C540.2,422.5,538.5,423.2,536.9,423.9z"/>
	<path class="st2" d="M883.9,712.7c3,22.4,6.1,43.8,8.7,65.2c2.2,18.5,3.6,37,5.8,55.5c1.2,10.3,3.1,20.5,4.9,30.7
		c0.2,1.3,1.4,3.3,2.6,3.5c4.7,1.2,9.5,1.8,14.3,2.6c-3-27.7-6.4-54.1-8.7-80.6c-1.8-20.3-2.1-40.7-3.3-61.1c-0.3-2.6-1.6-5-3.6-6.7
		c-4.6-3.6-9.5-6.9-14.6-9.6C888.5,711.4,885.7,712.5,883.9,712.7z"/>
	<path class="st2" d="M422.9,418.3c-9.2-0.6-18.6-0.9-27.7-2.2c-7-1-13.6-4-20.5-5.3c-16.8-3.2-30.8-11.5-43.4-20.7
		c-10.4-7.3-17.2-18.7-18.7-31.3c-1-8.2,0.9-15.2,6.2-21.7c0.8-1,2.6-1.3,4-2c0,6-1.7,11.5,0.3,15.8c6.1,13,16.7,22.4,33.1,25.2
		c6,1,12.2,0.9,18.2,1.9c4.6,0.8,10.1,1.5,13.2,4c14.2,11.5,27.8,23.7,42.3,36.3C427.3,418.3,425.1,418.4,422.9,418.3z M364.7,384
		c-4.4-1.4-8.6-3.2-13-4.4c-2.3-0.6-4.8-0.5-7,0.2c12.6,11.5,30.2,10.5,45.2,15.6C384.6,385.6,373.6,386.8,364.7,384z"/>
	<path class="st2" d="M491.2,418.3c3.5-3.2,7.6-5.4,11.6-7.8c14.2-8.5,28.5-16.9,42.6-25.7c9.6-6,20.5-11.2,27.9-19
		c13-13.5,23.8-28.6,35.6-43.1c6.6-8.2,15.5-14.2,25.5-17.3c6.4-2,15.3,2.5,18.9,8.7c1.8,3.1-3.1,16.6-6.4,19.7
		c-10.7,10.1-25.7,14.2-38.4,21.6c-10.3,6-20.9,11.8-31.4,17.6c-2.2,1.1-4.5,2-6.9,2.7C544.9,392.2,517.8,404.9,491.2,418.3z
		 M633.7,307.6c-1.8,2.9-3.5,5.9-5.7,9.5C635.6,316.1,636.9,314.4,633.7,307.6z"/>
	<path class="st2" d="M901.5,884.7c2,19.4,4,38.5,6.1,57.5c0.7,6.4,2.3,12.8,2.9,19.2c1,11.8,1.9,23.7,2.3,35.5
		c0.2,6.1,3.4,11.7,1.9,18.2c-0.8,3.2,1.1,7,6.4,8.6c4.4,1.4,7.9,4.9,11.9,7.5l1.5-0.8c-0.6-3.2-1.4-6.4-1.8-9.7
		c-2.2-19.9-4.5-39.9-6.6-59.8c-1.1-10.7-1.8-21.4-2.6-32.1c-0.9-12.3-1.8-24.6-2.7-36.9c-0.3-3.8-2.2-5.9-7-5.9
		C909.7,886.1,905.6,885.2,901.5,884.7z"/>
	<path class="st2" d="M448.1,971.8c11.4,5.9,21.3,4.1,31.6-0.8c12.6-6,25.5-11.8,38.5-17c19.7-7.8,39.5-15.4,59.5-22.5
		c17-6,34.4-11.1,51.7-16.6c0.3-0.2,0.6-0.4,0.9-0.6c-6.5-6.1-15.8-8-24.1-5.1c-16.9,5.7-33.9,11.2-50.8,17
		c-24.7,8.4-48.3,18.8-71.4,30.2c-9.4,4.7-19.6,8.1-29.5,12.1C452.5,969.4,450.6,970.6,448.1,971.8z"/>
	<path class="st2" d="M184.6,164.4c1.2,2.4,2,4,3.4,6.7c-8.7,14.9-17.9,31.3-27.7,47.4c-9.1,14.9-19.2,29.2-28.1,44.2
		c-3.4,5.8-10.8,8.3-12.2,16.1c-1.2,6.6-6.8,12.7-11.1,18.6c-2.4,3.2-7.8,5.2-9,8.5c-1.8,5.3-6.5,7.9-9.7,11.9
		c-2.3,2.9-3.6,6.5-5.4,9.7c-3.2,5.5-5.8,11.4-9.8,16.5c-7.8,9.9-16.1,19.4-24.5,28.9c-10.1,11.2-20.4,22.3-30.8,33.3
		c-5.9,6.3-12.1,12.3-18.2,18.4c-0.3-3.3,1.5-6.2,1-8.8c-1.4-8.4,8.5-9.7,11.8-15.1c2.1-3.4,7.5-5.1,10.6-8.2
		c7.1-7,13.8-14.3,20.6-21.6c1.4-1.5,2.6-3.2,3.8-4.8l-1.7-1.3l-9.2,8.3c0.5-1.9,1.3-3.7,2.4-5.3c5.3-9.4,16.2-15.9,18.4-26.9
		c0.4-0.8,1.1-1.3,2-1.4c8.9-0.8,11-8.2,15.3-12.9c5.3-5.9,8.1-13.6,12.4-20.3c1.6-2.4,4.4-4.2,6.7-6.2c2-2-1.3-7.2,6.4-6.2
		c0.4,0.1,1.2-1,1.6-1.7c3.3-4.3,6.9-8.4,9.6-12.9c4.6-7.8,12.4-13.6,16.4-22c7.2-15.2,21.9-27,26.7-43.5c1-2.7,2.4-5.3,4.2-7.6
		c0.5-0.8,2.4-0.7,5.2-1.4l2.3-3.6l-3.6-1C171.1,188.3,177.7,176.6,184.6,164.4z M118.1,280.9l-2.6-1.3l-13.2,21
		c0.6,0.3,1.3,0.6,1.9,1L118.1,280.9z M49.7,362.4l2.5,1.5l9.2-12.1l-1.8-0.8L49.7,362.4z"/>
	<path class="st2" d="M493.9,323.2c-14.9,4.9-30.6,6.5-46.2,4.8c-8.7-1-18.3-0.4-24.9-7.1c-0.9-0.9-1.9-2.8-1.4-3.7
		c2.8-5.3,11.6-6.9,18-4.9c6.8,2.1,14.2,2.7,21.4,3.9l0.6-2.3c-2-0.5-3.9-1.1-5.9-1.6c-2.8-0.7-6.5-0.5-8.3-2.1
		c-1.2-1.1,0.3-4.5,0.6-7.3l-26,6.7c7.7-9.7,18.1-13.9,29.2-14.8c19.7-1.6,40.5-0.2,51.3,11.7l-18.1,7.6c0.3,0.7,0.5,1.4,0.8,2.1
		l25.6-6.8C507,317.3,500.6,321.1,493.9,323.2z M475,308.2c0-0.6,0-1.3,0-2h-15.5v2H475z"/>
	<path class="st2" d="M377.4,455.5c-7.4-2.8-13.8-5.4-20.3-7.7c-15.7-5.6-30.1-12.9-42.9-22.7c-2.7-2-5.4-3.9-8.3-5.5
		c-19.4-11.6-30.4-28.3-37.2-47.4c-1.3-3.7-2.4-4.5-6.1-2.6c-1.3,0.6-2.7,1-4.2,1.2c-2,0-3.9,0-5.9-0.2c2.8,6.9,5,13,7.8,18.9
		c2.3,4.3,4.9,8.5,7.7,12.4c0.7,1,2.4,1.5,3.5,2.2c0.7,0.3,1.3,0.8,1.7,1.4c5.1,10,14.3,16.7,23.3,24c17.2,14,37.7,22.8,58.4,31.6
		c4,1.7,7.8,3.4,12-0.7C369,458.3,372.9,457.5,377.4,455.5z"/>
	<path class="st2" d="M429.2,996.7c-9.3-7.3-10-7.4-22-1.6c-11.3,5.4-22.9,10.5-33.8,16.5c-14.2,7.8-28.5,15.7-41.6,24.9
		c-15.4,10.9-29.4,23.3-44.1,35c-4.2,3.3-9,6.2-14.1,9.6c9.9,4.2,19.7,2.8,26.4-3.7c16.7-16.2,35.9-29.7,56.5-41.7
		c18-10.5,35.9-21.2,54.1-31.3C416.2,1001.2,422.7,999.3,429.2,996.7z"/>
	<path class="st2" d="M675.6,310.1c3.6,3.7,6.8,7.1,10.1,10.3c8.2,8.1,13.7,18.6,15.6,30c1.9,9.9-2.3,18.6-7.4,26.9
		c-8.3,13.6-20.8,24.4-33.6,34.7c-2.6,2.1-6.5,2.9-9.4,4.7c-4.5,2.9-4.3,6.5,1,8c3.2,0.9,8.2,0.5,10.8-1.1
		c13.7-9.3,26.5-19.4,36.3-32.2c12.7-16.5,18.2-34.3,10.9-53.5c-3.5-8.9-8.6-17-15.1-24C687.2,305.8,689.6,304.9,675.6,310.1z"/>
	<path class="st2" d="M124.5,77.5l3.2,1.2c2-5.4,4-10.8,6-16.2l11.1-25.2c-5.1,27-20.5,50.5-31.9,74.8c-2.2-0.1-4.9,0.1-5.4,1.2
		c-4.1,8.3-7.9,16.7-11.7,25.1c-1.4,3.1-2.8,6.3-3.6,8.1c-1.1,3.8-1.2,6.4-2.5,8.4c-5,7.8-10.6,15.3-15.5,23.2
		c-5.5,8.9-10,18.2-15.7,27c-4.4,6.8-10,12.9-14.8,19.5c-13.8,19.3-27.4,38.7-41,58.1l-2.9-1c1.2-3.7,1.5-7.8,3.6-10.9
		c10.4-15.4,21.3-30.6,32.1-45.8c9-12.7,18.5-25.2,27-38.2c7.1-10.8,13.5-21.9,19.6-33.1c8.1-14.7,15.6-29.7,23.3-44.6
		c6.2-12,12.5-24,18.7-36.1c1.8-3.5,3.3-7.1,5.3-10.5c1.3-2.3,3.1-2.8,4.3,0.3L124.5,77.5z M118.3,93.8l2.4,0.8
		c1.6-3.7,3.2-7.3,4.7-11l-2.3-0.9L118.3,93.8z"/>
	<path class="st2" d="M548.2,376.3c-5.3,0.7-10.7,1.5-16,2.2c-14.7,1.9-29.2,4.2-44,5.3c-8.2,0.6-16.5-1.1-24.9-1.6
		c-1.1-0.1-3.1,0.3-3.4,0.9c-0.6,1.2-0.9,3-0.2,4.1c2.8,4.5,6.1,8.8,9.1,13.2c1.3,2,2.3,4.1,3.6,6.1c0.9,1.3,2,3.3,3.1,3.4
		c6,0.3,13.1,1.8,18-0.3c18.6-7.8,35.2-18.4,52.1-28.6c1.3-0.8,2.1-2.2,3.2-3.4L548.2,376.3z"/>
	<path class="st2" d="M358.4,418.1c-7.1-2.8-14.2-5.7-21.3-8.5c-16.5-6.5-30.9-17.4-41.6-31.6c-8.3-10.8-10.5-21.7-7.7-34
		c1.6-6.9,2.4-13.9,3.5-20.6c-0.3,0.1-1.8,0.4-2.4,1.2c-9.4,12.9-15.4,26.2-11.2,42.1c6.3,23.9,24.6,39,46.7,51.6
		c5.1,2.9,10.3,5.8,15.7,8.3c4.2,2,8.6,3.6,12.4-1.4c1.6-2.1,4.9-3.2,7.4-4.7L358.4,418.1z"/>
	<path class="st2" d="M904.9,702.5c-2.9-21.2-5.9-41.6-8.6-62c-0.7-5.5-0.6-11.2-1.2-16.8c-0.2-1.6-1.4-3.1-2.2-4.6
		c-1.6,0.7-3.2,1.4-4.7,2.2c-1.9,0.9-3.7,2-5.4,3.3c-5.4,4.3-6.5,9.3-5.3,15.9c2.8,14.8,4.7,29.7,6.1,44.6c0.6,6,6.8,7,9.9,10.7
		C896,698.8,900.8,700.2,904.9,702.5z"/>
	<path class="st2" d="M635.4,348.4c-38.8,16.1-69.8,40.1-106,56.7l1.2,2c5.3-2,10.5-4.2,15.9-6c7.1-2.4,14.3-4.5,21.5-6.8
		c1.8-0.6,3.7-1.2,5.5-2c15.1-6.3,31.7-9.9,44.9-19.4c6.5-4.6,13.2-9.2,16.4-16.3C635.6,354.8,635.1,352.4,635.4,348.4z"/>
	<path class="st2" d="M631.2,431.1c-0.9,0.3-2.5,0.8-4,1.4c-12.8,4.9-25.4,10.2-38.3,14.7c-15.5,5.4-31.3,10.1-47,14.9
		c-3.2,1-7.9,1.8-5.7,5.1c1.8,2.7,7.7,5.9,10.5,5.1c13.9-3.6,27.5-8.3,41-13c7-2.4,13.6-5.8,20.5-8.5c4.5-1.8,9.3-2.9,13.7-4.8
		c6.2-2.7,12.3-5.7,18.3-8.7c1.3-0.7,2.2-2,3.3-3c-1.3-0.9-2.7-1.6-4.2-2.1C636.6,431.7,633.9,431.4,631.2,431.1z"/>
	<path class="st2" d="M396.6,477.9c37.8,3,74.9,5.4,113,1.8c-3.2-4.5-6.7-8.3-12.8-8.6c-8-0.3-16.1,0-24.2-0.1s-16.3-0.4-24.5-0.7
		c-9-0.3-18.4,0.7-26.7-1.6c-10.6-2.9-15.5,5.2-23.5,6.8C397.5,475.6,397.2,476.7,396.6,477.9z"/>
	<path class="st2" d="M439.1,436.5c-4.6-1.1-8.4-2.4-12.3-2.9c-13.2-1.7-26.4-3.1-39.6-4.5c-1.6-0.2-3.7-0.8-4.9-0.2
		c-4.9,2.6-9.5,5.5-15.5,9.1c10.7,8.5,24.1,8.9,36.3,12.3C418.9,454.6,427.6,445.6,439.1,436.5z"/>
	<path class="st2" d="M10.6,144.6c1.3,0.1,3.4,0.6,3.7,0.2c13.7-21.8,27.2-43.7,40.6-65.7c2.2-3.7,4.9-7.9,4.8-11.8
		c-0.2-5.8,2.6-10,5.2-14.9c1.6-3-0.1-7.2-1-11.4C47,76.1,24,108.2,0.7,140l1.5,1.1c1.2-1.4,2.5-2.6,3.9-3.8c1.1-0.7,2.7-0.8,4-1.1
		l1.7,1.8c7.3-13.2,14.4-26.4,21.8-39.5c0.7-1.3,2.5-2,4.1-3.3L44,80.2l5.7,1.6c-0.1,0.5,0.1,1.1-0.2,1.5
		c-5.2,7.6-10.8,15.1-15.6,22.9c-3.7,5.9-6.5,12.2-9.9,18.3c-2.4,4.2-5.2,8.3-7.9,12.4c-1.7,2.6-3.5,5.2-5.2,7.8L10.6,144.6z"/>
	<path class="st2" d="M225.6,73.9c-1.4,2.8-2.4,5.4-3.8,7.7c-1.3,2.2-2.9,4.3-3.3,6.9l7.4-5.2l1.4,1.2c-1.6,2.3-3.2,4.6-4.8,6.9
		l1.6-0.2l1.8,8.8l-6.2,1.1l1.6,0.7c-1.7,4.8-2.6,10.1-5.2,14.4c-3.9,6.3-8.4,12.2-13.4,17.7c-3.6,4.2-13.5,25.9-13.4,32.4
		c28.3-43.1,48.5-88.6,69.2-134.1l-6.8,10l-1.7-0.8c2.1-3.8,4.3-7.6,6.4-11.4l-3-1.2c-3.7,7.3-7.5,14.7-11.2,22
		c-0.7,1.3-0.9,3.2-2.1,4c-4,2.8-4.6,6-3.7,10.2C237.8,71.6,233.2,75.2,225.6,73.9z"/>
	<path class="st2" d="M515.3,451.8c8.9-2.3,17.8-4.5,26.6-7.1c0.9-0.3,1.7-4,1.1-4.4c-6.9-4.5-13.9-8.8-21.2-12.8
		c-1.8-1-4.8-1-6.9-0.6c-7.5,1.6-15,3.5-22.4,5.7c-1.5,0.7-2.5,2.2-2.6,3.8C490.2,439.3,511.5,451.4,515.3,451.8z"/>
	<path class="st2" d="M414.9,377.7c0.9,7.4,39.5,38.1,50.5,39.7c-1.3-3.7-1.7-7.1-3.5-9.8c-6.4-9.1-13.2-18-20.1-26.8
		c-1.1-1.2-2.6-1.9-4.2-2C430.1,378.3,422.6,378,414.9,377.7z"/>
	<path class="st2" d="M488.4,291.1c9.5,3.1,19,6,28.4,9.4c5.1,1.8,8.2,5.2,8.6,10.5c0.5,5.6-3.8,7.9-8.1,10.1s-8.9,3.9-13.1,6.6
		c7.6,0.3,15.2,2.3,22-2.2c2.1-1.4,4.6-2.4,7.1-2.9c6.9-1.1,10.1-5.9,9.8-10.7c-0.3-3.9-3.7-9.1-7.6-11.2
		c-12-6.5-25.1-10.8-39.8-9.9c-2.4,0.2-4.9-0.4-7.4-0.6L488.4,291.1z"/>
	<path class="st2" d="M918.8,1084.5c4.2,0.2,7.7,0.8,11.1,0.4c4.3-0.4,5.4-3.6,5.1-6.8c-1-8.8-1.3-17.8-4-26.2
		c-1.6-4.9-7.3-8.8-12.4-12.7C913.7,1054.5,919.5,1069.1,918.8,1084.5z"/>
	<path class="st2" d="M536.2,249.9c15.6,2.9,31.2,5.7,46.8,8.5c27.2,4.8,53.1,15.1,76.1,30.3c2.2,1.4,5.2,1.9,7.8,2.8
		c-1.4-2-2.3-4.9-4.4-6c-12.7-7-25.5-13.9-38.7-20.1c-22.9-10.9-48.6-13.1-73.7-17.1c-4.5-0.7-9.2-0.1-13.8-0.1L536.2,249.9z"/>
	<path class="st2" d="M452.3,264.1c4.6,0,9.2-0.1,13.9,0c16.6,0.3,33.2-0.2,49.7,1.4c15.7,1.5,31.2,5,46.8,7.7c4.7,0.8,8.1,0,10.4-5
		c-40.2-7.7-80.2-10.7-120.7-6.8C452.3,262.3,452.3,263.2,452.3,264.1z"/>
	<path class="st2" d="M420.7,329.5c-5-3.2-10.3-6.1-14.8-9.7c-7.6-6.1-6.8-13,2.1-17.6c5.7-3,12-5.2,18-7.7c0.8-0.3,1.6-0.6,2.5-0.9
		l-1.2-1.6c-6.2,1.5-12.5,2.9-18.7,4.5c-3.3,0.8-6.5,2.1-9.8,2.9c-5.7,1.3-11.8,7.6-12.4,13.6c-0.5,5.6,2.9,9.8,8.5,11.6
		c8.3,2.7,16.9,4.6,25.4,6.8L420.7,329.5z"/>
	<path class="st2" d="M519.3,248.1c-7.7-8.3-116.7-2.5-126,6.9c5.5,0,10.1,0.8,14.3-0.1c22-4.9,44.4-6,66.9-6.7
		C489,247.8,503.6,248.1,519.3,248.1z"/>
	<path class="st2" d="M362.9,298.6c8.4,1.6,15.6,3.9,23.8-0.4c11.5-6,23.6-11,36.1-16.7C409.6,278.5,367.5,290.4,362.9,298.6z"/>
	<path class="st2" d="M422.8,265c-10,1.1-20.5,1.1-30.1,3.5c-21.3,5.3-42.2,11.7-63.2,17.8c-3.7,1.1-6.5,3.4-4.5,7
		c2.1,4,5.8,1.7,8.3,0.2c15.5-9.6,33.1-15.4,51-20.1c12.5-3.3,25.7-4.8,38.6-7.1L422.8,265z"/>
	<path class="st2" d="M943,1055.7c0.4,4.8,0.7,9,1.1,13.1c0.3,2.9,2,6.1,1,8.5c-3.8,8.9,2.9,7.1,8.4,7c2.4,0.2,4.7,0.5,7,1
		C965.1,1072.8,959.6,1063,943,1055.7z"/>
	<path class="st2" d="M309.2,374c-1.3-3-2.7-6-3.8-9c-4.4-12.3-1.8-24.4,1.8-36.5c0.6-1.9,2.9-3.4,3.9-5.3c0.8-1.6,1.9-4,1.1-5.2
		c-1.4-2.1-4.1-3.4-6.2-5.1c-1.6,2.2-4.3,4.4-4.7,6.8c-1.7,9.7-2.8,19.4-3.5,29.2c-0.6,9.6,4.2,17.9,9.4,25.9L309.2,374z"/>
	<path class="st2" d="M438.5,457.4c12.3,3.7,24.4,0.9,37.3-1.4c-4.6-4.5-8.3-8.5-12.3-12c-0.8-0.7-3.5-0.6-4.7,0
		c-7.2,3.6-14.2,7.5-21.3,11.4L438.5,457.4z"/>
	<path class="st2" d="M256.9,357.1c7.3-2.1,7.8-7.4,9.7-12.2c2.7-7,6.3-13.6,9.5-20.4c0.9-1.9,1.4-3.9,2.8-8c-4,1.1-7.3,1.1-8.6,2.5
		C260.5,330,257.5,343,256.9,357.1z"/>
	<path class="st2" d="M425.6,919.1c6.2-3.5,12.8-7,19-10.9c1.2-0.8,1.9-3.7,1.2-4.8s-3.5-1.5-5.4-1.4c-8,0.5-15.6,2.3-20.7,8.3
		c-1.3,1.5-2.9,4.5-2.2,5.4C418.8,917.2,421.9,917.7,425.6,919.1z"/>
	<path class="st2" d="M435.5,959.8c1,0.8,1.9,2.1,3.2,2.5c6,2.1,26-9.7,25.4-15.3c-0.2-1.5-3.9-4-5.6-3.8
		C451.4,944.2,439.1,953.5,435.5,959.8z"/>
	<path class="st2" d="M461.2,275.8c21.8,3,45.9,6.3,70,9.5c0.8,0.1,1.8-0.6,4.9-1.8c-3.6-1.5-5.5-2.9-7.6-3.1
		c-13.2-1.6-26.5-3.4-39.8-4.4C478.8,275.2,468.7,275.8,461.2,275.8z"/>
	<path class="st2" d="M403.3,931c-5.5-1.1-9.9-2.2-14.4-2.7c-3.2-0.4-6.4-0.1-9.5,0.8c-2.3,0.8-3.9,3.2-5.8,5c2,1.1,3.9,2.7,6.1,3.3
		c4,1.1,8,1.8,12.1,2C397.7,939.7,400.8,936.2,403.3,931z"/>
	<path class="st2" d="M640.4,296.3c-4.4-6.2-35.8-17.5-46.4-16c3.1,1.6,5,3.2,7.3,3.7c8.8,1.9,16.6,5.1,23.1,11.1
		C628.7,299.2,634.8,298.3,640.4,296.3z"/>
	<path class="st2" d="M312,281.3c21.3-10.8,42.9-18.4,67.4-21.6C368.6,254.3,313.6,272,312,281.3z"/>
	<path class="st2" d="M141.3,993.2c1.8,0.5,5.6,2.5,6.4,1.8c4.6-3.6,8.8-7.8,12.4-12.5c2-2.8-2.9-5.5-7.6-4.3
		C147.1,979.7,141.6,986.2,141.3,993.2z"/>
	<path class="st2" d="M372.4,1000.2c3.5,0.7,6.5,2.3,8,1.5c5.8-3.2,11.4-6.7,16.8-10.6c1.1-1.1,1.4-2.6,0.9-4c-0.5-0.8-3-1.2-4.4-1
		C384.9,987.7,378.6,992.4,372.4,1000.2z"/>
	<path class="st2" d="M129.5,229.7c1.9-1.4,4.6-2.5,5.8-4.2c5.4-8.1,9.4-17.1,15.9-24.5c5.2-5.8,4.2-13,9.4-18.3L159,182
		c-10.2,15.5-20.5,31.1-30.7,46.6L129.5,229.7z"/>
	<path class="st2" d="M378.6,979.6c-5.4,1.3-10.4,2.4-15.2,3.9c-1.3,0.4-2.8,2.3-2.7,3.4s1.9,2.4,3.4,3c4,1.6,16.2-1.1,18.7-4.2
		c0.8-1,1.6-3.1,1.1-3.5C382.5,981,380.4,980.4,378.6,979.6z"/>
	<path class="st2" d="M213.8,70.5c-4.2,6.6-8.8,13-12.5,19.8c-3.8,7-6.8,14.3-10.1,21.4l1.6,0.7c4.2-7.9,8.3-15.9,12.4-23.8l1.1,0.3
		l-2.4,7.2l1.7,0.4c2-5.5,3.8-11.1,6-16.6c0.8-2.1,2.6-3.9,3.9-5.8l1.9,0.4l-3.7-4.2L213.8,70.5z"/>
	<path class="st2" d="M502.2,935.9c7.1,0.2,15.2-4.4,16.8-8.9c0.3-0.9-2.4-3.7-2.5-3.6c-5.8,2.7-11.5,5.5-17.2,8.4
		C500.5,933.5,501.7,935.2,502.2,935.9z"/>
	<path class="st2" d="M462.4,1026.7c5.3-0.1,14.2-6,14.9-9.7c0.2-1-2.8-3.5-3-3.4c-5.2,2.5-10.3,5.3-15.2,8.2c-0.7,0.4-1,2.6-0.5,3
		C459.7,1025.7,461,1026.3,462.4,1026.7z"/>
	<path class="st2" d="M538.3,1051.7c5.9,7.5,14.8,9.8,22.6,6.4C558.4,1051.3,547.6,1048.1,538.3,1051.7z"/>
	<path class="st2" d="M458.3,939.5c2.5-0.2,4-0.1,5.1-0.5c1.6-0.7,3.2-1.5,4.7-2.5c-0.9-1.2-1.4-2.9-2.7-3.7c-4.8-3-10.8-3.4-16-1
		c-0.8,0.3-1,4.2-0.3,4.5C452.1,937.7,455.2,938.7,458.3,939.5z"/>
	<path class="st2" d="M493.4,923.5c-7.5-0.8-12.4,2.9-17.5,5.9c-1.1,0.7-1.1,3-1.5,4.5c1.7,0.4,3.6,1.4,5.2,1.2
		C487.1,934,492.4,929.6,493.4,923.5z"/>
	<path class="st2" d="M480.5,903.9c-3.9,3.2-7.9,6.2-11.5,9.5c-0.6,0.5,0.2,3.1,1.2,3.9s3.7,1.2,4.6,0.6c3.3-2.4,6.4-5.2,9.2-8.1
		c0.7-0.8,0.4-2.6,0-3.8C483.9,905.4,482.5,905,480.5,903.9z"/>
	<path class="st2" d="M417.5,941.3c3.9,5,13.5,7.5,18.5,5c2.9-1.5,3.3-3.3,0.1-4.6C430.3,939.4,424.2,936.9,417.5,941.3z"/>
	<path class="st2" d="M1865,1040.2l-32.2-9.3c3.4,5.9,25.8,13,31.7,11.3L1865,1040.2z"/>
	<path class="st2" d="M510.1,1016.8c-2.9-4-13.5-7.3-17.6-5.3c-0.9,0.4-1.3,3.2-0.6,4C494.9,1019.2,505.4,1019.8,510.1,1016.8z"/>
	<path class="st2" d="M512.8,975.1c2.3,6.6,15.1,10.1,19.1,6.2c0.7-0.7-0.3-4.1-0.9-4.2C525.1,976.1,519.2,975.7,512.8,975.1z"/>
	<path class="st2" d="M640,987.2c-3.4-5.8-9.5-6.1-15.2-7c-1.2,0-2.3,0.5-3,1.4c-0.3,1.1-0.1,2.2,0.5,3.2
		C624.7,988.3,635.1,989.8,640,987.2z"/>
	<path class="st2" d="M305.5,975.7c5.3,1.8,9.8,3.5,14.5,4.6c1.2,0.3,4.4-1.4,4.4-2.1c0-1.5-1.2-4-2.6-4.4
		C316.8,972.5,311.3,969.2,305.5,975.7z"/>
	<path class="st2" d="M388.1,463l-17,4.8l0,2.2c2.2,0.6,4.7,2.2,6.5,1.7c4.3-1.2,8.3-3.5,12.4-5.3
		C389.4,465.2,388.7,464.1,388.1,463z"/>
	<path class="st2" d="M174,981.4c2.3,1.7,4.3,3.3,4.4,3.2c2.8-2.2,5.4-4.7,7.8-7.3c0.3-0.3-2.3-2.5-3.5-3.8L174,981.4z"/>
	<path class="st2" d="M477.8,341.2l9.7,11.5c0.9-5.2,1.5-8.8,2.4-13.5L477.8,341.2z"/>
	<path class="st2" d="M103.2,936.2c3.4,1.6,6.9,3,10.5,4.2c1,0.3,3.2-1.1,3.9-2.2c0.4-0.6-0.7-3-1.5-3.2c-3.8-0.9-7.8-1.3-11.8-1.9
		C103.9,934.2,103.6,935.2,103.2,936.2z"/>
	<path class="st2" d="M298.2,293.2c-10,1.1-12.3,4-10.6,13.5L298.2,293.2z"/>
	<path class="st2" d="M1440.6,1045.1l21.3,18l2.3-2.2l-22.6-16.5L1440.6,1045.1z"/>
	<path class="st2" d="M10.8,144.7c-2.8,3.4-5.7,6.7-8.1,10.3c-1.3,1.9-1.5,4.3-2.3,6.5l2.8,0.8c2.5-5.9,5-11.8,7.5-17.8L10.8,144.7z
		"/>
	<path class="st2" d="M169.5,156.4l5.7-0.9v-10.6C172.4,145.3,172.4,145.3,169.5,156.4z"/>
	<path class="st2" d="M150.4,207.1l-11.6,19.2l1.9,0.8c3.6-6.4,7.3-12.9,10.9-19.3L150.4,207.1z"/>
	<path class="st2" d="M1359.2,853.6l21,13.8l1.2-1.4l-21.2-13.6L1359.2,853.6z"/>
	<path class="st2" d="M54,338.3l-10,10.6C48.6,350.4,52.6,346.2,54,338.3z"/>
	<path class="st2" d="M284.5,983.5l9.3,2.1l1-2.9l-9.1-2.7C285.3,981.2,284.9,982.3,284.5,983.5z"/>
	<path class="st2" d="M1127.7,863l18.9,7.1l0.9-1.8l-19-6.6L1127.7,863z"/>
	<path class="st2" d="M133.2,231.8l-9.6,13.1l2,1.1c3.2-4.3,6.4-8.6,9.6-12.9L133.2,231.8z"/>
	<path class="st2" d="M71.2,43.6l4.9-11.2C69.8,34.8,70,39,71.2,43.6z"/>
	<path class="st2" d="M1497.1,118.9c15.3,6.1,30.5,11.2,44.6,18.1c9.6,4.7,20.6,5.3,30,10.3c2.8,1.5,7.2,0.7,10.8,1.2
		c21.5,2.8,43.1,3.9,64.8,1.2c18.3-2.3,36.6-4.8,55-5.7c10.5-0.5,21.4,1.4,31.8,3.3c4.9,1.1,9.3,3.7,12.6,7.4
		c2.3,2.7,2,7.4,2.1,11.3c0.6,13.2-8.7,22-18.5,30.2c-11.3,9.5-25.8,13.5-40.8,15.5c-5.1,0.7-10.3,0.8-15.5,0.2
		c-12.5-1.7-25.1-3.6-37.4-6.1c-10.8-2.2-21.3-5.5-32-8.1c-21.8-5.2-43.7-5.7-65.1,0.9c-6.9,2.1-13.3,6.2-18.9,10.4
		c-7.5,5.5-14.5,11.5-20.9,18.1c-7.9,8.1-11.2,18.4-12.3,28.7c-0.8,8.2,8.6,12.7,19.4,10.4c11-2.3,19.4-11,18.5-21.1
		c-1.3-14.1,5.6-22.6,20.3-27.1c6.8-2.1,13.1-5.8,20-7c7.8-1.4,16.4-2.4,23.9-0.7c14.7,3.2,29.5,7.1,43,13.1
		c20.5,9,41.2,11,63.4,7.5c12.8-2,24.3-5.9,34.4-13c7.9-5.5,17.1-10,23.9-16.4c10.6-9.8,19.3-21,18.6-35.8
		c-0.3-6.2,0.7-12.5,0.5-18.8c-0.5-12.7-10.7-17.8-22.4-21.8c-22.3-7.6-45.2-5.1-68-2.9c-14.9,1.4-29.7,4.1-44.6,5.7
		c-19,2-37.7-0.6-56.1-4.8c-11.5-2.7-23-5.6-34.2-9.3c-7.4-2.4-14.1-6.5-21.2-9.7c-2.3-1.2-4.8-2-7.3-2.4c-1.7-0.1-3.6,1.3-5.3,2
		c1.3,1.2,2.4,2.8,4,3.5c4.7,2,9.6,3.5,15.3,5.6l5-3c-1.2,2.9-1.8,4.4-2.6,6.3c4.5,0.8,9,1.3,13.3,2.4c2.9,0.8,5.4,2.8,8.3,3.8
		c16,5.3,32.7,8.7,49.5,10c9.5,0.7,19.2-1.7,28.7-1c15.6,1.1,30.3-1.8,45.4-4.1c10.8-1.7,22.2-4.1,32.6-2.4
		c8.7,1.4,17.2-1.8,25.8,1.6l-2.1,2.3c4.7,1.1,9.1,2.4,13.6,3.3c9.7,1.8,14.8,6.2,16.4,15.6c1.8,10.2,1.4,19.9-2.3,29.3
		c-2.5,6.2-7.5,11.6-11.9,17.1c-12.1,15.2-29.2,24.5-48.7,30.8c-4.9,1.7-10,2.9-15.1,3.6c-4,0.5-8.2-0.8-12.2-0.6
		c-4.2,0.1-8.4,1.1-12.6,1.5c-1.5,0.2-3.1,0-4.5-0.5c-21.2-10.7-44.7-15.5-68.1-19.8c-15-2.8-30.7-0.8-45.3,4.7
		c-3.3,1.3-7,2-10.3,3.3c-8.6,3.6-13.9,9.6-14.9,18.5l-9.1-3.6c10-14,25-23.4,41.9-26.4c19.8-3.8,39.6-0.7,59.3,1.5
		c0.3,0,0.5,0.5,1.5,1.4l-5.6-0.8l-0.2,1c4.3,0.9,8.7,1.4,12.9,2.6c13.9,4,27.4,9.5,41.6,12c9.9,1.7,20.8,0.2,31-1.2
		c8.5-1.2,16.8-4.1,24.8-7c4.7-1.8,9.1-4.4,12.8-7.8c6.9-6.4,12.9-13.5,19.5-20.1c7.2-7.2,7.3-16.3,9.1-24.9
		c0.7-3.4,0.5-6.9,0.7-10.5l-4.6-2.5l3.7-1.8c-7.3-10.5-17.8-15.9-31.6-16c-14-0.1-28.1-0.6-41.9,0.6c-13.6,1.2-26.9,4.7-40.4,6.6
		c-6.3,0.8-12.7,1-19,0.5c-18-1.1-36.3-0.8-53.7-6.6c-11.9-4-23.7-8.8-36.1-11.4c-8.7-1.8-14.8-7.3-22.9-9.5
		C1504.4,108.8,1504.4,108.8,1497.1,118.9z"/>
	<path class="st2" d="M1874.3,551.8c-12.4-0.9-24.9-1.6-37.4-2.7c-20.7-1.8-41.4-3.7-62-5.9c-30.9-3.3-61.8-6.7-92.6-10.6
		c-14.7-1.9-29-5.6-43.6-8c-20.8-3.5-41.8-6.1-62.5-9.8c-18.4-3.3-36.6-7.5-54.9-11.2c-16.2-3.3-32.5-6.2-48.7-9.6
		c-21.7-4.5-43.3-9.1-64.9-13.9c-17.8-3.9-35.6-8-53.3-12.1c-6.8-1.6-13.8-3.1-20.3-5.5c-4.7-1.8-7.5-2.1-9.7,2.6
		c-2.5,5.6-1.8,9.3,3.5,11.1c9.6,3.3,19.3,6.5,29.1,9.2c14.2,3.9,28.4,7.8,42.9,10.8c25.7,5.4,51.5,10,77.2,15
		c18.9,3.6,37.8,7.5,56.8,11c14.9,2.7,30,4.8,45,7.6c11.8,2.2,23.4,5.1,35.3,7.3c11.5,2.1,23.2,3.7,34.8,5.4
		c22.2,3.2,44.3,7,66.7,9.4c23.8,2.5,47.9,3.5,71.8,5.6c17.8,1.5,35.7,2.8,53.2,5.8C1855,565.8,1864.5,559.1,1874.3,551.8z"/>
	<path class="st2" d="M1533.5,565.6c18.4,7.2,42.9,30.9,37.9,52c-4.1,17.3-14.3,29.9-30.5,37.2c-26,11.6-53.9,18.8-84,15.8
		c-16.4-1.6-32.8-1.5-48.3-8.1c-18.4-7.8-34.3-17.8-45.9-33.2c-7-9.3-10.3-19-8.1-29.7c1.1-5.5,3.6-10.7,7.2-15
		c9.7-11.4,23.2-18.2,38.4-23.1c19.1-6.2,38.8-8.9,60.7-10.5C1484.4,553.9,1509.5,556.2,1533.5,565.6z M1392.6,645.4
		c17.3,10.3,36.8,16.2,56.8,17.3c8.9,0.5,17.9-0.4,26.8-0.6c16.7-0.3,33.2-3.1,49.1-8.1c24.6-8,36.6-26.6,34.5-48
		c-1.3-13.2-11-22.6-22.8-30.2c-15.2-9.7-32.9-12.4-51-14.5c-19.4-2.3-39.1-2.2-58.5,0.4c-21.6,3-41.6,10.5-56.9,25.1
		c-4.6,4.3-6.8,10.5-5.9,16.7C1365.4,623.2,1376.3,635.9,1392.6,645.4z"/>
	<path class="st2" d="M1306.4,649.9v14.5C1311.9,658.6,1307.8,654.2,1306.4,649.9z"/>
	<path class="st2" d="M1015.2,350.4c0,3.1,0.1,5,0,6.9c-0.5,7.5,1,8.8,8.7,11.7c11.1,4.3,21.7,9.5,32.7,14.1
		c7.9,3.4,15.9,6.7,24,9.7c12.9,4.7,25.8,9.2,38.8,13.8c4,1.4,8.2,2.6,12.1,4.2c7.5,3.1,10.4,2.7,14.3-3.6c0.7-1.2-0.9-4.9-2.6-5.7
		c-7.3-3.5-15-6.2-22.5-9.3c-12.8-5.2-25.6-10.6-38.5-15.7c-16.1-6.4-32.2-12.5-48.3-18.9c-3.9-1.5-7.6-3.6-11.4-5.2
		C1020.1,351.6,1017.7,350.9,1015.2,350.4z"/>
	<path class="st2" d="M1028.6,47.5c2-8.7-1.7-16.4-5.7-25.7C1025,31.5,1026.8,39.5,1028.6,47.5z"/>
	<path class="st2" d="M1217.3,452.2c-0.8-3.2-1.2-4.8-2-7.8c10.4,2.9,19.9,5.5,29.2,8.2c13.2,3.9,26.3,8,39.4,12
		c4.6,1.4,9.1,3.3,13.8,4.2c1.9,0.4,4.4-0.9,6.3-1.9c0.9-0.5,1.3-2,1.7-3.1c3.2-8.1,2.3-10-6.9-12.3c-9.7-2.4-19.6-4-29.2-6.5
		c-29.8-7.5-59.3-15.6-87.4-27.4c-2-0.9-5.7-0.3-7.8,0.8c-4,2.2-7.4,5.2-11.1,7.9l0.9,2.3c3.7,1.1,7.5,2.1,11.2,3.3
		c11.6,3.7,23.4,7,34.8,11.3C1212.9,444.5,1214.3,448.4,1217.3,452.2z"/>
	<path class="st2" d="M1491.5,99.2c-7.9-6.3-15.3-12.7-23.3-18.3c-1.8-1.3-6.9-1-8.8,0.3c-3.4,2.4-6.1,5.6-7.7,9.4
		c-0.4,1,4.5,3.8,7.1,5.7c3.6,2.6,7.7,4.7,11,7.5c7.1,5.8,11.9,5.6,17.6-1.1C1488.6,101.4,1490,100.2,1491.5,99.2z"/>
	<path class="st2" d="M1470.6,77.8c7.6,5.4,15.2,10.8,22.7,16.2c5,3.7,4.9-2.3,8.3-2.5c-7.8-5.3-14.8-10-21.9-14.7
		C1476.7,74.8,1473.6,73.9,1470.6,77.8z"/>
	<path class="st2" d="M1235.3,713.6l22.7,15.6l1.5-1.7l-23.1-15.2L1235.3,713.6z"/>
	<path class="st2" d="M1248.9,509.6l-9.5-17.9l-1.7,0.6l9,18.1L1248.9,509.6z"/>
	<path class="st2" d="M1281.2,584.8c-1.8-5.3-3.7-10.7-5.5-16l-1.5,0.4c1.6,5.4,3.3,10.8,4.9,16.2L1281.2,584.8z"/>
	<path class="st2" d="M1391,586.9c-12.3,12.8-8.9,27.8,5.9,35.7s30.4,14.9,49.1,13.2c8.2-0.7,16.6,0.8,24.9,0.4
		c3.3-0.2,7.9-2,9.2-4.2c1.7-2.9-5.6-10.7-9.5-10.8c-6.5-0.2-13,0.1-19.5,0.1c-17,0-33.2-2.7-48.4-10.1c-10.2-5-11.9-12.3-11.3-21.2
		C1391.3,589,1391.2,587.9,1391,586.9z"/>
	<path class="st2" d="M1482.1,571c7.3,4.1,15,7.5,21.3,12.3c4.6,3.5,8.1,8.5,11.2,13.2c4.2,6.3-0.2,19.1-11.4,20.7
		c-6.6,1-13.1,2.4-19.5,4.1c-0.8,0.2-1.8,3.3-1.1,4.2c7.2,10.4,17.1,11.4,28.6,4.5c7.9-4.8,14.9-9.7,19.1-17.5
		c4.2-8,2.9-15.1-3-22.1c-6.3-7.4-14.1-13-22.8-17.9C1496.2,567.7,1487.5,567,1482.1,571z"/>
	<path class="st2" d="M1465.7,577c2.4,2,4.8,3.8,7.4,5.5c5.3,3.2,6.4,6.8,2,11s-9.2,6.6-15.8,8.1c-11.7,2.7-22.5,0.7-33.8-0.7
		c-7.6-1-10.8-6-15.5-9.7c-0.9-0.7-1.2-1.9-1.8-2.9l-2.9,1.4c1.5,3.1,2.1,6.8,4.5,9.3c9,9.4,22,11.2,34.8,12.2
		c8.9,0.7,17.9,0.6,26.8-0.2c9.7-0.9,18.9-3.6,25.6-10.6c3.2-3.3,3-6.7,0.6-10.1c-7.1-9.9-17.6-14.2-30.3-15L1465.7,577z"/>
	<path class="st2" d="M1458.5,644.6c4.2,9.5,8.4,11.8,18.3,11.9c15,0.2,29.9-2.3,44-7.2c6.2-2.1,11.8-5.7,17.1-9.3
		c4.2-2.8,2.7-4.2-1.4-7.1c-9.2-6.3-16.5-1-24,2.1c-14.9,6.2-30.5,8.9-46.9,8.8C1463.2,644,1460.8,644.2,1458.5,644.6z"/>
	<path class="st2" d="M1506.9,570.3c39.4,17.9,40.2,34,27.3,55l7.2,7.5c1.9-1.3,4.7-2.4,6-4.3c11.7-16.5,3.1-42-17-50.8
		c-6-2.6-12.1-5-18.3-7.3C1510.6,569.8,1508.7,570.3,1506.9,570.3z"/>
	<path class="st2" d="M1385.6,633.4c19.5,13.9,41.3,19.5,65,22.4c-2.3-8.1-4.8-10-12.7-10.8c-13.8-1.4-27.1-4.2-38.8-11.3
		C1395.7,631.8,1391.7,629.2,1385.6,633.4z"/>
	<path class="st2" d="M1387.1,624.3c-9.9-14.3-15.8-28.6,2.8-41.8c-8.9,1-13.1,6-16.9,11.5c-5.8,8.5-3.4,17.1,0.9,25.2
		C1376,623.2,1379.9,626.5,1387.1,624.3z"/>
	<path class="st2" d="M1473.8,567.7c-1.8-1-3.5-2.6-5.4-2.9c-12.2-1.5-24.6-3.7-36.4,2.3l40.3,1.7L1473.8,567.7z"/>
	<path class="st2" d="M1447.8,572c-4.4,0-8.9-0.6-13.1,0.2c-5.5,1-10.8,3-16.1,4.7c-5.1,1.6-6.8,4.8-5.6,10.2
		c9.1-10.4,22.7-10.3,35.5-12C1448.2,573.9,1448,573,1447.8,572z"/>
	<path class="st2" d="M1432.8,581.7l26.1,4.5c-1.2-2.4-1.5-5-3-5.9C1449.8,576.8,1437.2,577.9,1432.8,581.7z"/>
	<path class="st2" d="M1396.7,576.9c7.5,2.6,14.4-1.3,17.1-9.8L1396.7,576.9z"/>
</g>
</svg>
