<svg id="Слой_1" data-name="Слой 1" xmlns="http://www.w3.org/2000/svg" viewBox="0 0 1920 1089.09"><defs><style>.cls-1{opacity:0.11;}.cls-2{fill:#683b11;}.cls-3{fill:#1d70b7;}</style></defs><g class="cls-1"><path class="cls-2" d="M1536.37,0c-7.71,2.33-15.62,4.25-23.08,7.08a212.19,212.19,0,0,0-26.2,11.57c-11.18,6.1-21.7,13.14-32.52,19.75-2.16,1.31-4.42,2.49-6.67,3.75-.05,9.34-5.13,14.38-13.29,12.75-2,6.31-3.32,13.14-12,16.39-2.16-5.63-5-4.94-8.47-1.08-14.06,15.44-29,30.33-42.2,46.28-14.11,17-27.43,34.53-39.83,52.52-17.1,24.82-32.39,50.62-49.66,75.34-11.85,17-25.52,33-38.82,49.13-9.08,11-18.46,21.92-28.58,32.21-10.44,10.62-22.08,20.31-32.88,30.65-4.28,4.09-10.64,7.28-9,14.68.41,1.83-2.81,4.3-4.33,6.44l-8.21-2.74c-5.47,5.34-10.41,10.2-15.4,15-3.33,3.21-4.56,6,.93,8.65,2.56,1.24,4.61,3.35,6.72,5.22a3.8,3.8,0,0,1,1.21,2.57c0,2.75-11.1,10.43-14.34,10-4-.56-8.18-.74-12-1.85-8.34-2.43-14.59.54-20.66,5q-22,16.28-44.23,32.37c-12.23,8.84-24.71,17.43-36.78,26.44-1.73,1.29-1.75,4.35-4.21,6.58.47-3.42.85-6.86,1.45-10.26s2.74-7.08,1.9-10.15c-4.13-15.1-5.46-30.36-5.95-45.83-.33-10.35-2.45-20.66-3.7-31-2.19-18.13-4.7-36.23-6.41-54.39-2.48-26.32-10.33-51.63-18.35-76.86A175.83,175.83,0,0,0,976.39,224c-9.39-16.74-18.79-33.63-30.24-49.29a220.41,220.41,0,0,0-64.7-58.58c-15.33-9.23-33.08-15.67-50.4-22a345.23,345.23,0,0,1-68.54-33.68c-15-9.62-32.06-15.48-49.88-19.8-31.77-7.7-64.57-10.08-97-14.06C605,25.32,595,22.21,584.4,21.25c-15.39-1.39-30.61-3.49-46.26-2.15-12.41,1.07-25,.55-37.49.89a23,23,0,0,0-7.52,1.26c-17.41,6.66-36.14,8.53-54.54,11.36-10.7,1.65-21.7,1.78-32.57,2.62-9.94.77-19.87,2-29.84,2.26-10.69.29-21.44.08-32.11-.6-11.24-.72-22.47-1.9-33.57-3.53-9.93-1.46-19.75-3.6-29.49-5.85-6-1.38-11.73-3.54-19.19-5.85L276,0h-7.91c-1.64,6.15-3.29,12.29-5.31,19.83L216.72,0H199.58c11.27,5.09,22.57,10.13,33.8,15.29,12.55,5.77,24.87,12,37.6,17.38,7,3,14.45,6,22,7,26.87,3.37,53.82,7.25,80.87,8.22,20.32.73,40.92-2.12,61.22-4.52,13.57-1.6,26.82-5.28,40.25-7.9,6-1.16,12-2,18.62-3.1-1.07,1.62-2.55,3-2.9,4.62s-.26,3.91.82,5c13,12.61,26,25.29,39.49,37.46,8.2,7.36,17.46,13.8,26.11,20.79s17.07,14.54,26,21.37,18.43,13,27.66,19.53c9.38,6.6,18.68,13.29,28.11,19.84,8.22,5.7,16.6,11.22,24.87,16.87,10.66,7.29,21.29,14.45,33,20.61,14,7.4,26.5,17,40,25.23,10.92,6.62,22.37,12.57,33.63,18.75,8.6,4.72,16.72,10.69,26.05,13.69,16.55,5.34,16.11,17.56,18.46,29.21,2,9.94,4.78,19.77,7,29.69,1.8,8.26,3.23,16.58,4.82,24.88.54,2.82,1.14,5.64,1.61,8.47,3,17.86,5.62,35.76,8.9,53.57,4.44,24,9.5,48,14,72,3.89,20.6,7.25,41.28,11.18,61.87,1.87,9.83,4.69,19.5,6.74,29.3,2.24,10.71,4.07,21.49,6.16,32.63,6.07-2.43,7.77-6.1,9.12-11.55,3.51-14.27-1.91-27.41-4.23-41-4.23-24.77-8.09-49.59-12.46-74.34-3.29-18.66-7.07-37.25-10.76-55.86q-5.19-26.21-10.66-52.36c-3.75-18-7.71-35.94-11.45-53.92-1.46-7-2.67-14.07-3.81-21.12-1.08-6.69-2.73-12.74-11.71-14.74-1.51-.34-2.28-3.24-3.39-5l2.09-1.55,178,91.18c4.94-7.5,2.39-14.72-3.26-18.81-16.08-11.66-36.37-16.23-53.71-25.75-16.84-9.25-34.55-17.26-51.65-26.17-10.66-5.55-20.79-11.89-31.35-17.6-5.92-3.2-12.34-5.69-18.35-8.78a201.09,201.09,0,0,1-18.64-10.47c-2.05-1.36-7.53-4.37-.18-6.88.48-.16.15-2.77-.21-4.16-5.57-21.23-11.13-42.46-16.87-63.66s-11.65-42.36-17.52-63.53c-2.39-8.62-4.75-17.25-7.34-25.83C774.9,77.74,765,77.1,760.14,71.33l-2.55,1.27c15.36,56.5,30.72,113,46.46,170.88-11.5-6.13-21.94-11.52-32.17-17.19-16.47-9.14-33-18.21-49.14-27.79s-32-19.84-47.91-29.84C664.5,162.18,653.85,156,644,149c-20-14.22-40-28.52-59.18-43.56-18.09-14.15-35.27-29.21-52.69-44-9.13-7.77-18-15.76-26.78-23.86a8.87,8.87,0,0,1-2.45-6c0-.72,3.29-2.14,5.1-2.16,13.85-.21,27.84-1.24,41.54,0,28.25,2.62,56.38,6.31,84.5,10,31.74,4.11,63.84,6.92,94.4,16.09A160.18,160.18,0,0,1,757.8,68c25,13.38,49,28.46,76.21,38.19,16.61,5.92,33,11.87,47,22,19.07,13.75,36.1,29.2,49,47.72,11.51,16.47,23.16,33,33,50.24,7.22,12.73,12.07,26.58,17,40.19,5.17,14.23,9.85,28.65,13.57,43.22a404.06,404.06,0,0,1,9,45.38c1.52,11.22.41,22.69,1.29,34,1.88,24.35,3.86,48.7,6.69,73,1.17,10,4.61,19.9,7,29.85a10.35,10.35,0,0,1,0,5.9c-1.4-3.14-2.79-6.29-4.73-10.67l-31.12,18.93c1,.6,1.64.79,1.89,1.18,1.43,2.3,2.76,4.64,4.12,7-3.39.5-7.25,2.13-10.07,1.23-4.77-1.5-7.78-2.31-11.86,1.73-4.56,4.49-10.87,7.59-16.26,11.47-9.25,6.64-18.38,13.41-27.54,20.14-5.18,3.8-3.59,9.3-3.25,13.79.93,12.19-7.3,18-17.93,22.74-3.8,1.7-6,1.31-6.78-2.92-.67-3.48-2.37-6.81-4-11.26-1.39,1.79-2.39,2.48-2.4,3.18-.09,5.59,0,11.17.06,16.75,0,4-8.56,12.35-12.77,11.83-1.57-.2-3.39-2.18-4.08-3.7-.94-2.09-1-4.51-1.3-6.8-.28-2.07-.38-4.16-.63-7-2.48.5-4.76.37-6,1.3a633,633,0,0,1-74.38,46.66c-.32.17-.44.63-1.1,1.63,2.5,1.7,5,3.64,7.78,5.23,3.53,2,6.5,4.38,4.59,8.37-2.48,5.15-7.17,7.21-11.92,5.24a92.46,92.46,0,0,1-13-6.64c-3-1.87-4.74-2.36-8.44-.22-17,9.83-34.55,19-51.76,28.54-5.68,3.16-10.94,6.9-15.78,10,1.21,2.41,3.94,5.28,3.18,6.84-1.72,3.56-5.86,3.94-10,2.58-6.68-2.17-11.87.72-17.14,3.84-24.81,14.67-49.56,29.41-74.62,43.74-9,5.15-18.82,9.22-28.26,13.78-.19.09-.37.2-.56.3q-21.63,11.84-43.26,23.64c-5.49,3-11.16,5.71-16.59,8.77-1.62.92-2.71,2.58-3.94,3.8-15.63,4.77-28,14.68-41.68,22.35,3.22,3.42,6.42,6.38,9,9.7s.22,7.13-4.45,6.81a75.42,75.42,0,0,1-14-2.18c-7.65-2-14.17-2.21-21.29,2.52-18.15,12.07-37.11,23.17-55.52,34.94C368.56,874,358,882,346.67,889.16c-15.32,9.74-31,19-46.53,28.53-5.37,3.3-10.88,6.5-15.7,10.34-1.05.83.56,4.23.95,6.52-12-3.22-25.06-7.43-38.54-10.18-13.17-2.69-25.59-7.36-38.73-10-13.86-2.84-27.5-6.46-41.34-9.38-13.56-2.86-27.25-5.24-40.86-7.9-13.84-2.7-27.66-5.52-41.5-8.23q-20.49-4-41-7.9C29.56,878.29,15.69,875.77.57,873c0,5.45-.51,10.22.29,14.8.28,1.55,3.73,3.36,6,3.8,6.13,1.16,12.4,1.76,18.65,2.32,3.37.3,6.81.05,10,.05l-3.82,2.61c3.49-.22,5.38-.64,7.16-.4,7.66,1,16.22.69,22.61,3.8,4.31,2.09,8.07,1.66,12,2.51,12.29,2.67,24.59,5.33,36.94,7.77,7.61,1.5,15.4,2.33,23,4,4.26.93,8.08,3.38,12.33,4.38q30.85,7.26,61.85,14.07c14.69,3.22,29.47,6.1,44.2,9.18,2.45.51,4.9,1.84,7.26,1.7,5.06-.31,10.87,1.89,14.95-2.89.42-.5,2.27-.07,4.54-.07-4.88,4.52-8.87,7.74-15.79,5.53-1.71-.54-4.74.46-6.36,1.62-13.88,9.91-27.72,19.86-41.28,30.11-13.74,10.38-27,21.24-40.72,31.64-8.6,6.51-17.65,12.56-26.49,18.84-6.26,4.44-12.41,9-18.76,13.35-12.76,8.71-25.49,17.45-38.49,25.87-8.36,5.42-17.2,10.25-25.76,15.42-1,.6-1.57,1.72-3.68,4.13,5.37-.58,9-1.2,12.63-1.34,14.87-.54,29.75-1.25,44.62-1.26a33.82,33.82,0,0,0,19.46-5.87c11.11-7.47,21.9-15.31,32.92-22.9s22.49-14.75,33.2-22.68c10-7.42,19-15.93,28.94-23.39,15.17-11.35,30.8-22.23,46.27-33.27,4.74-3.38,9.71-6.54,14.36-10,2.9-2.18,5.94-4.19,3.4-8.69-1.82-3.21,1.34-5.92,6.79-6.43-3.3,7.58,2.9,9.48,8.82,10.81,13.78,3.1,27.78,5.48,41.55,8.62,14.07,3.21,28,7,42,10.49,15.12,3.77,30.31,7.31,45.37,11.28,26.36,6.94,53.32,12.62,78.72,21.68,20,7.14,41.21,9.68,61.25,15.95,26.32,8.23,52.73,16.42,78.27,26.29,18.32,7.08,35.27,16.89,52.86,25.44,4.56,2.22,9,5.13,13.89,6.22,5.51,1.23,11.51.8,17.3,1,2.6.09,5.2,0,10,0-3.59-3.53-5.75-6.29-8.57-8.33-15.65-11.33-33-20.25-51.37-27.68-11.25-4.54-22-10.08-33.23-14.64-7.38-3-15.34-4.85-22.88-7.55-6-2.17-11.81-4.95-17.8-7.26-3-1.16-6.29-1.85-9.42-2.81-8.31-2.54-16.5-5.4-24.92-7.62-14-3.68-28.15-6.75-42.11-10.46-13.06-3.46-25.92-7.53-38.94-11.12-8.53-2.35-17.19-4.33-25.8-6.46-18.65-4.62-37.28-9.31-56-13.82-26.32-6.35-52.69-12.53-79-18.85-10.22-2.45-20.37-5.07-30.92-7.71a12.74,12.74,0,0,1,1.32-1.39c13.47,6.11,20.86-3.52,28.92-9.37q42.24-30.66,87.47-57.72c17-10.09,33.81-20.38,51-30.21,27-15.44,54-30.78,81.36-45.73,12.34-6.75,25.55-12.26,38.12-18.71,12.23-6.28,24.12-13.08,36.2-19.59,15.65-8.42,31.59-16.42,46.94-25.24,22.31-12.83,44.1-26.36,66.32-39.32,10-5.83,20.5-11,30.73-16.5,11.46-6.17,22.86-12.42,36.19-19.68l-3.22,9c3.46,1.9,8.45,4.61,13.4,7.36,13.43,7.44,26.69,15.15,40.35,22.25a109.93,109.93,0,0,0,19.47,7.47c14.35,4.23,26.28,11.92,38.16,19.73,1.4.92,2.23,2.59,3.06,4,.11.19-1.61,1.7-2.16,1.57-2.15-.53-4.65-1-6.13-2.34-2.17-1.93-3.57-4.52-6-6.64,6.66,50,8.16,100.32,16.89,150l1.63-1.08c2,.62,4.1,1.22,6.12,1.88,2.29.75,6.13,2.64,6.55,2.16,2-2.24,4.39-5.23,4.16-7.77-1.25-13.76-3.17-27.47-5-41.19-1.79-13.36-4-26.68-5.58-40.06-2-16.25-3.48-32.55-5.37-48.81-.26-2.31-1.51-4.53-2.79-8.18,2.92.53,5.28.62,7.31,1.39,9.41,3.58,19,7,28,11.14,14.06,6.46,27.62,13.78,41.69,20.22,14.88,6.81,30,13.17,45.21,19.44q21.22,8.77,42.78,16.91c21.85,8.2,43.84,16.1,65.76,24.17,17.72,6.53,35.35,13.28,53.16,19.62,10.34,3.67,21,6.68,31.45,10,4,1.29,8,2.73,12,4.1,3.73-6.86,2.44-9.28-4.83-11.8-11-3.79-21.67-8.14-32.56-12.08-10.07-3.64-20.26-7-30.36-10.6-4.63-1.63-9.14-3.51-13.77-5.13-7.76-2.7-15.78-7.82-23-8-10.07-.25-15.23-7.08-23.82-8.72-8.34-1.6-16-5.83-24-8.94-20.19-7.88-40.44-15.66-60.54-23.71-24.5-9.81-49-19.65-73.23-29.9-8.78-3.71-16.63-9.09-25.39-12.84-4.36-1.87-9.82-1.75-15-2.58.3-19.43-4.17-39.59-6.84-59.95s-3.13-40.9-4.64-62.46c-5.41,2.91-8.83,4.79-12.29,6.61-6.3,3.31-6,8.67-5.48,14,1.49,14.9,3,29.81,4.76,44.69,1.27,10.67,2.62,21.35,4.74,31.9a16.46,16.46,0,0,0,6.14,9.68c5.31,3.68,7,8.94,10.08,13.59.22.32-.3,1-.77,2.44-1.62-1-3.71-1.57-3.95-2.51-1.6-6.35-7.71-8.54-13-11.39q-36.17-19.31-72.41-38.49c-6.48-3.45-12.84-7.08-19.35-10.67,14.24-9,28.15-17.61,41.8-26.53s26.72-18,40.14-26.95c17.38-11.59,35-22.91,52.18-34.74,8.25-5.68,15.46-12.5,23.55-18.38,10.29-7.48,21-14.49,31.52-21.77,3.25-2.25,7-4.29,9.28-7.16,1.61-2,1.53-5.26,1.58-8a93.68,93.68,0,0,0-.84-10.13l2.24-.12,2.25,18.37c.89,7.34,1.5,14.72,2.75,22,1.38,8.09,3.33,16.11,5.08,24.15,2.55,11.67,4.31,23.54,7.91,35,7.09,22.5,13.61,45.3,23.32,66.94,12.39,27.6,30.26,52.81,50.47,76.73a211,211,0,0,0,36.26,33.89c11.73,8.65,25.43,15.35,38.7,22.25,12.61,6.54,25.52,12.73,38.81,18.09,10.86,4.39,22.41,7.52,33.8,10.81,4.44,1.28,5.2,3.35,5.31,7.15.55,18.37,1.55,36.74,2.44,55.1.41,8.47.55,17,1.49,25.4,1.42,12.77,3.32,25.51,5.25,38.23,1.33,8.81,3,17.58,4.64,26.34,1.15,6.11,2.58,12.18,3.79,18.29,2,10.25,3.82,20.55,6,30.78,3,13.74,6,27.46,9.42,41.13,1,4,9.28,6.11,15.48,4.19,5.48-1.7,2.77-5.24,2.08-8.26-4.66-20.59-9.23-41.2-14.08-61.76-2-8.47-5-16.76-6.87-25.24-1.67-7.53-2.56-15.2-3.55-22.83-1.9-14.5-3.91-29-5.34-43.55-1.91-19.4-3.35-38.83-4.89-58.25-.39-5-.21-10-.7-14.9-.12-1.21-1.59-2.58-2.85-3.38a44.25,44.25,0,0,0-6-2.73l.45-1.38c3.19.48,6.37,1.1,9.59,1.43,10.8,1.11,21.66,3.27,32.42,2.93,22.73-.72,45.68-1.4,68-4.7a293.3,293.3,0,0,0,55.83-14.41c28.49-10.23,55.93-22.69,84.11-33.63,26.78-10.4,51.24-24.16,75.51-38.34,9.82-5.73,20.3-10.6,30.17-16.27,5.1-2.93,9.51-6.78,14.27-10.17,13.81-9.83,27.54-19.74,41.49-29.41,12.16-8.43,25.86-15.46,36.57-25.09,14.91-13.4,33.11-22.7,49.52-34.16,20.39-14.24,42.13-27,63-40.71,15.75-10.37,30.9-21.43,46.6-31.87,9.41-6.26,19.33-11.93,29.06-17.8,4-2.4,8.08-4.63,12.12-6.93v-11.6c-6.25,3.89-12.46,7.83-18.75,11.66-24.66,15-49.06,30.35-74.08,44.87-42.59,24.71-82.72,52.28-122.5,80.28-13.67,9.63-27.34,19.27-40.84,29.1-7,5.1-13.35,10.94-20.51,15.86s-14.92,9.05-22.41,13.53c-14.27,8.53-28.34,17.36-42.88,25.52-13.93,7.81-28.12,15.3-42.62,22.27-17.09,8.2-34.53,15.85-52,23.43-13.7,5.94-27.33,12.22-41.62,16.85-13.44,4.36-27.69,6.84-41.62,10-8,1.82-16,3.74-24.06,5-29.84,4.52-59.76,8.18-90.11,3.64-3.59-.54-7.3-.51-13.15-.88,10.44-5.24,8.17-13,7.46-19.54-2.22-20.64-1.27-41.15.28-61.76,2.1-27.83,2.71-55.76,5.46-83.54,1.93-19.54,6.46-38.87,9.58-58.33.92-5.72.63-11.59,1.51-17.31,3.64-23.69,7.37-47.37,11.4-71,.87-5.11,3.46-10,4.64-15.07,2.26-9.78,3.56-19.75,6.2-29.45,6.54-24,13.16-47.9,20.58-71.65,9.85-31.54,19.92-63.05,31-94.27,8.67-24.45,17.77-48.88,29-72.46,7.12-14.95,18.3-28.45,28.07-42.37q12.43-17.7,25.82-34.87c18.26-23.49,38.74-45.34,64.75-62.55,22.16-14.66,44.83-29.24,71.36-36.87,15.55-4.47,32.54-6.34,49-6.85,21-.65,42.13.6,63.09,2.22,33.1,2.57,66.17,5.64,99.12,9.41,26.4,3,52.56,7.69,78.92,11,13.19,1.67,26.61,2,39.92,2.95V67.27c-6.07-.45-12.18-.61-18.19-1.41-27.69-3.7-55.31-7.76-83-11.32-14.73-1.89-29.58-3-44.39-4.47q-26.07-2.51-52.16-4.89c-5.42-.5-10.86-.9-16.28-1.37-16.54-1.43-33-3.65-49.62-4.12-23.15-.66-45.68,4.2-68,8.81-8.55,1.76-16.58,5.57-24.71,8.73-6.76,2.62-13.78,5-19.89,8.61-24.48,14.3-45.38,32.35-65.58,50.89a488.53,488.53,0,0,0-37.33,38.76c-15.19,17.39-30.14,35-40.49,55.23-6.45,12.61-14.58,24.59-20.45,37.38-7.06,15.43-12.79,31.34-18.59,47.19-3.38,9.27-5.61,18.85-8.63,28.23-4,12.53-7.74,25.19-12.66,37.46a522.86,522.86,0,0,0-19.8,58.76c-5.51,20.54-10.8,41.13-15.57,61.81-5,21.56-9.46,43.2-13.7,64.88-3.36,17.19-6.29,34.45-8.91,51.74-2.25,14.79-3.08,29.76-5.83,44.46-2.81,15.1-5.87,30.11-6.7,45.44-.77,14.32-2.09,28.63-3.35,42.93-.63,7.07-2.28,14.1-2.41,21.16-.31,17.12,0,34.25.06,51.38,0,7.37,0,14.75,0,22-9.6-3.27-21.09-6.06-31.33-10.89-20.19-9.54-39.72-20.17-59.47-30.42-21.18-11-37.49-26.32-50.85-44.27-4.42-5.92-8.79-11.88-13.3-17.75-6.08-7.93-13.29-15.34-18.18-23.79-8.62-14.91-17.07-30-23.31-45.8-7-17.71-12-36.09-17-54.36-4.46-16.26-7.72-32.77-11.58-49.15-3.17-13.44-4.14-27.38-11.37-39.94-.59-1-.23-2.47-.31-3.72l1.89-.16c.61,2.81,1.21,5.63,2,9.21,2.79-1.49,5.27-2.6,7.49-4,7.23-4.66,14.35-9.45,21.54-14.16,12.53-8.21,25.53-15.91,37.5-24.71,14-10.32,27.28-21.52,40.73-32.47,15.07-12.28,30.59-24.19,44.83-37.18,22.63-20.62,44.47-41.92,66.41-63.11,8.61-8.33,17.53-16.6,24.7-25.87,13.26-17.14,25.56-34.87,37.82-52.59,10.33-14.94,20.17-30.14,30-45.35,5.83-9.05,10.51-18.71,16.86-27.45,9.61-13.24,20.06-26,30.46-38.81,11.32-13.91,22.19-28.19,34.75-41.2a272.7,272.7,0,0,1,35.14-30c10-7.35,22.15-12.43,32.62-19.35,24.19-16,51.21-25.86,80.71-31,10.88-1.89,21.57-4.94,32.54-6.05a295.69,295.69,0,0,1,38-1.22c20.76.6,41.46,2.45,62.22,3.1,27.89.87,55.81,1.62,83.71,1.38,14.14-.13,28.37-2,42.34-4.17,5.15-.8,10.34-4.09,14.32-7.37,5.41-4.46,5-8.47.59-12.84Z"/><path class="cls-3" d="M1920,250.53c-7,.93-14.1,1.76-21.11,2.81A194.26,194.26,0,0,0,1830.42,277c-11.2,6.41-21.65,14-33.21,19.78-16.48,8.32-30.49,19.36-43.81,30.8-20,17.17-32.09,38.55-33.47,63.43-.86,15.43.56,30.34,16.75,41.48,13.3,9.14,25,10.64,38.59,1.24,8-5.57,9.81-13.06,5.3-22.25-4.15-8.45-9.64-11.11-20.31-10a44.36,44.36,0,0,1-8.51.5c-5.79-.5-8.81-4.9-6.5-8.94,4.76-8.34,15.39-14,25.18-13,14.1,1.48,23.73,6.16,27.22,17.35,2.8,9,3.15,17.67.13,26.73-6.79,20.29-33.2,33.7-57.43,24.06-9.48-3.77-14.95-10.87-17.79-18.75a137.13,137.13,0,0,1-7.72-32.92c-.71-7.22,2.37-14.74,3.86-22.1,3.91-19.31,15.76-35.27,31-48.43,14.69-12.67,31.62-23.55,48.65-33.82,20.11-12.14,38.86-26.22,62.42-33.74,19.29-6.16,39-10,59.21-12.6Zm-137.13,151c-1.17-1.31-.92-3.55-1.93-5-1.35-2-2.92-4.3-5.09-5.25-5.86-2.55-15.27-.3-19.71,4.2-.63.65-1.46,1.88-1.17,2.35a6.63,6.63,0,0,0,2.81,1.88,4.52,4.52,0,0,0,1.93.14c17.2-.82,25.11,5.68,25.64,22.11C1789,416.05,1787.28,406.46,1782.87,401.56Z"/><path class="cls-3" d="M189,0c1.54,3.11,3.08,6.21,4.87,9.84l4.51-3.13c0,2.8.62,5.15-.12,7.1-2.22,5.84-4.79,11.59-7.59,17.24-3,6.05-6.73,11.81-9.56,17.91-5.76,12.4-10.28,25.3-16.85,37.35-9.27,17-17.45,34.54-29.32,50.37-2.84,3.78-1.63,10.4-9.49,10.89-.38,0-1.15,1.46-.93,2,1.6,3.71-1.21,5.13-4,6.88-1.25.79-2.91,3.08-2.53,3.56,4.26,5.45-2.41,8.14-3.43,13.67l-1.6-4.58c-2.39,2.13-4.57,4.87-3.88,6.83,2.21,6.34-1.68,6.69-5.11,6.42l-12.82,26.1-2.24-6.17c-.29,7.19-1.08,13.75-10,17.76l1.85-4-1.92-.43-2.4,7.86L54.86,250.77l-1.76-.61c.15-1.32-.15-2.87.55-3.91,1.84-2.71,4.34-5.08,6.18-7.8,5.81-8.58,11.72-17.11,17.06-25.91,11.81-19.47,23.24-39.1,34.93-58.62,2.31-3.87,5.66-7.3,7.57-11.29,7.88-16.45,15.08-33.14,23.13-49.51,4.3-8.75,10.34-16.84,14.69-25.57,6.63-13.29,12.53-26.86,18.62-40.35,4.07-9,7.93-18.13,11.89-27.2ZM123.6,140.3c6.92-3.5,11.29-11,10.9-20C131,126.7,127.55,133.07,123.6,140.3Zm14.53-28.09c-.82,1,.13,3.14.27,4.75l1.92.23,8.66-15-1.22.13C144.5,105.56,141,108.69,138.13,112.21Z"/><path class="cls-3" d="M765.14,0c5.92,19.29,11.7,38.61,17.9,57.82,1,2.94,3.89,5.38,5.9,8.06L791,65.2c-.9,1.24-1.81,2.48-3.14,4.32l17.7,9.83,2.12-1.07c-9-26-14.68-52.71-25.4-78.28Z"/><path class="cls-3" d="M1380.8,0c8.94,18.13,20.25,35.16,31.87,52,3.48,5,9,9,13.79,13.59,5.34-7.24,5.54-11.68.22-16.93-3.57-3.53-7.11-6.61-8.86-11.48-1.94-5.38-6.13-10.1-8.68-15.36-2.39-4.93-9.26-8.14-7.31-14.9.24-.81-2.87-2.37-4.42-3.59,4.84-3.4,6.33-2.93,8.76,1.76,1.89,3.65,4.56,7,6.82,10.51a11.56,11.56,0,0,1,1.53,3.19c3.09,11.54,12.49,19.9,19.39,29.51.71,1,3.11,1.07,4.73,1.56,0-1.67.71-4.14-.26-4.91-12.31-9.69-16.24-23.47-23.11-35.81-1.72-3.09-3.64-6.09-5.46-9.14Z"/><path class="cls-3" d="M737.46,0C741,10.87,744.81,21.68,748,32.63c2.9,9.95,5.19,19.94,17.49,24.78,1.69.67,2.56,3,3.81,4.48l2.7-1.15a90.58,90.58,0,0,0-2-9.25C764.51,34.31,758.87,17.16,753.28,0Z"/><path class="cls-3" d="M1920,1046.18l-114.11,3.2-.23,1.21a53.25,53.25,0,0,0,5.71.78c26,.82,51.89,1.73,77.85,2.31,10.25.22,20.52-.34,30.78-.54Z"/><path class="cls-3" d="M1920,555.56c-3.44-.19-6.89-.57-10.33-.54s-7.79-.55-10.58.88c-6.37,3.25-12,7.55-18,11.43l.5,1.66L1920,571.8Z"/><path class="cls-3" d="M460.61,0c3.22,4.88,6,10,9.82,14.53,1.92,2.28,5.6,3.4,9.64,5.7l-4.47.84,2.15,2.52,12.89-6.27L477.75,0Z"/><path class="cls-3" d="M1920,1023l-13.29-6.32-1.31,2,14.6,7.79Z"/><path class="cls-3" d="M288.28,263.89c-.1.66-.23.9-.14,1,7,11.18,7.08,11.23,19.51,4.69,20.78-10.94,43.21-18.33,66.49-23.86,8.43-2,16.83-4.38,25.43-5.47,11.26-1.42,22.73-1.49,34.05-2.59,13.05-1.27,26-3.2,39.06-4.48,5.7-.56,11.54.09,17.27-.33,25.53-1.9,50.39,2.36,75.27,6.25,25.33,4,50.29,9.25,74.42,17.26a124.66,124.66,0,0,1,39.91,21.45c3.53,2.88,7.68,5.15,11.25,8,28.57,22.7,42.82,50.16,38,84.73-1.47,10.6-4.29,20.7-10.24,29.47-5.38,7.94-13.47,14.61-21,21.24-19.32,16.89-42.64,28.93-67,38.77-22,8.87-45.24,15.29-68,22.71-1.78.58-3.86.46-5.79.7-1.34.17-2.66.4-4,.6.5,1.33.53,3.22,1.57,3.87,5.85,3.68,11.57,7.87,18.1,10.22,3.41,1.23,8.61-.46,12.65-1.71,7.36-2.29,14.39-5.38,21.67-7.87,10.66-3.66,21.76-6.46,32.06-10.76,13.39-5.6,26.28-12.16,39.2-18.59,22.78-11.33,40.45-27.2,53.12-47.35,4.26-6.78,9.65-13.26,12.31-20.51A99,99,0,0,0,749,364.49c.7-9.73.84-19.8-1.29-29.28-2.26-10-5.93-20.37-11.8-29.1-7.19-10.72-16.52-20.6-26.43-29.55-7-6.36-16.25-11.08-25.09-15.65-12.81-6.61-26-12.66-39.35-18.47-4.8-2.09-10.38-2.8-15.59-4.16-15.42-4-30.58-9.56-46.32-11.71-24.38-3.33-49.13-5-73.8-6.14-21.33-1-42.87-1.36-64.14.09-19.95,1.35-39.73,5.14-59.47,8.4-13,2.15-25.91,4.93-38.65,8.09-5,1.25-9.43,4.38-14.22,6.49-13.8,6.07-27.66,12-41.45,18.1A15,15,0,0,0,288.28,263.89Z"/><path class="cls-3" d="M628.75,900c8.16,2.35,14.58,5.93,20.63,5.5,8-.56,15.78-4.26,23.66-6.57,3.9-1.14,8-1.89,11.73-3.32,33.64-12.8,69.16-17.48,105.39-20.05,35.12-2.48,70.13-2.65,104.88,2.4,23,3.34,46,7.16,67,16.8,3.37,1.54,7.88,1.14,11.84,1.73a7.73,7.73,0,0,1,2.28,1.06c11.9,6.33,23.74,12.75,35.7,19,14.58,7.61,29.53,14.69,43.79,22.73,8.76,4.94,16.6,11.17,24.75,16.92,22.11,15.59,44.73,30.67,66.06,47,18.63,14.29,36.08,29.82,53.49,45.28,11.22,10,20.93,21.23,32.38,30.94,3.7,3.14,10.81,3.16,16.35,4.61,0-1.7.88-4-.07-5-8.54-9-17.11-18.08-26.21-26.68-18.5-17.49-36.37-35.62-56.28-51.78-21.37-17.34-44.43-33.15-67.46-48.81a525.63,525.63,0,0,0-47.58-28.64c-27.89-14.94-56.29-29.16-84.73-43.29-4.34-2.15-10.71-6.7-14.49,1.51-.26.57-1.61,1.33-2,1.17-7.13-2.72-16.55.33-22-6.83-.88-1.14-4-2.27-5.1-1.78-9.76,4.3-17-2.1-25.21-4.25a2.49,2.49,0,0,1-1.43-1.8c-.83-7-7.44-7.42-12.72-7.39-30.49.16-61,.29-91.46,1.54-17,.7-34.38,2-50.73,5.8-22.89,5.36-46.51,8.58-68.38,17.52-10.74,4.39-23,5.89-34.39,9.06C635.53,895.21,633.16,897.39,628.75,900Z"/><path class="cls-3" d="M283.09,281.72c-.34-.47-1.57-2.28-3-4-4.5-5.41-5.36-5.36-10.1,0-9.54,10.74-20,20.95-28.42,32.32-5.15,6.93-7.77,15.47-10.58,23.55a91.7,91.7,0,0,0-5.22,22c-1.62,18.75,3.73,36.39,13,53.23,13.69,24.95,35.6,43,62,57.27,15.52,8.39,30.8,17.5,47.34,24,21.35,8.41,43.56,15.36,67.46,16.67,7.49.41,14.8,3.14,22.31,3.76,9.88.82,19.87.51,29.8.88,3.57.13,7.16,1.43,10.64,1.15,16-1.27,31.94-2.86,47.89-4.45,6.06-.61,12.1-1.46,18.1-2.41a5.64,5.64,0,0,0,3.29-2.09c.27-.36-.9-1.86-1.74-2.52-4.07-3.15-7.92-6.66-12.5-9.09-2.52-1.33-6.4-1.34-9.53-1-23.73,2.63-47.44,2.65-71.35,2.24-13.48-.24-26.85-.51-40-2.43-20.91-3-41.22-8.62-59.88-17.42C333,464.17,314,454,295.6,443.16c-8.32-4.93-14.83-12.37-21.69-19-7.54-7.35-12.93-15.82-18.44-24.59-16.62-26.48-14.42-52.63-1-78.41C261.54,307.51,272.83,295.59,283.09,281.72Z"/><path class="cls-3" d="M198.58,167.7c-3.63,4.67-5.51,7.79-.7,13,8.44,9.12,14.91,19.65,23,29.08,8.95,10.5,18.87,20.35,28.12,30.64,3.71,4.13,6.24,9.15,10.27,13,5.19,4.92,12.79,8.27,16.66,13.77,3.54,5,9,7.82,12.8,12.28,7.15,8.39,14.55,16.65,22.28,24.63,6.33,6.54,13.5,12.45,19.82,19A8.82,8.82,0,0,1,333,330.3c-2.2,9.06,3.13,19.09,13,22.5,4.37,1.5,9,2.35,15.39,4l-25.11-25.33,1.14-1.44c1.64.46,3.86.48,4.81,1.46C347,336.27,350.69,342,356,346.2c10.18,8.11,16.72,18.87,27.73,26.55,14.27,9.94,26.7,21.91,40.12,32.81C434,413.8,444.25,422,454.89,429.69c3.29,2.39,8,3.26,12.17,4.87-.31,9.15,8.76,12.23,14.93,16.92,11.9,9,24.29,17.6,36.71,26.11,10.41,7.13,21.23,13.79,31.67,20.89,3,2.06,5.11,5.19,8.07,7.35,11.72,8.6,23.48,17.16,35.5,25.44,12.52,8.63,25.17,17.13,38.09,25.28,13.41,8.45,27.36,16.23,40.8,24.63,13.23,8.26,26,17.05,39.2,25.4,5.76,3.64,12.11,6.56,17.92,10.15,7.63,4.7,15,9.74,22.46,14.65a39.61,39.61,0,0,0,4.13,2.82c10.33,5.12,20.77,10.06,31,15.27,3.07,1.57,5.24,1.61,7.15-1.13,2.08-3,.11-4.09-2.63-5.78-24.2-14.9-48.23-30-72.31-45.08-12.82-8-25.6-16.08-38.46-24.05-10-6.22-20.16-12.32-30.25-18.47-14.9-9.09-30-17.92-44.66-27.3-19.48-12.47-38.87-25.06-57.78-38.17C536.31,481,525,471.23,513,462.32c-13.36-9.93-27.33-19.24-40.5-29.35-22.84-17.55-45.53-35.26-67.77-53.39-13.27-10.81-25-23.08-38.46-33.72-12-9.48-22.61-20-33.3-30.45-6.7-6.55-12.5-13.81-19.11-20.43-5.14-5.15-11.3-9.52-16.33-14.75-12.17-12.64-24.05-25.5-35.85-38.41C248.33,227.19,235,212.51,222,197.63c-5.58-6.36-10.35-13.28-15.51-19.93C204.07,174.6,201.6,171.53,198.58,167.7Z"/><path class="cls-3" d="M1286.16,852.1c-2.09,6.37-.32,11.18,5.1,15.43l-3.1.62c.17.32.25.82.52.92,13.22,4.87,26.44,9.76,39.71,14.53,23.25,8.34,46.4,16.88,69.82,24.83,22.16,7.52,44.54,14.54,67,21.47q27.49,8.49,55.31,16.19c11,3,22.37,5.12,33.51,7.81,3.76.91,7.29,2.56,11,3.53,22.7,5.83,45.41,11.65,68.17,17.3,10.65,2.64,21.53,4.57,32.11,7.39,14.4,3.82,28.57,8.29,42.92,12.27,7.86,2.17,16,3.67,23.8,5.89,16,4.52,31.78,9.46,47.77,14,10.32,2.89,20.89,5.12,31.25,7.94q27.07,7.35,54,15.1c12.37,3.56,24.68,6.54,38,4.23,4.1-.71,8.5-.11,12.66-.11-26.52-7.54-52.93-15.25-79.5-22.52-13.56-3.71-27.55-6.2-41.07-10-17.21-4.84-34.08-10.6-51.21-15.69-14.22-4.22-28.57-8.14-42.91-12q-36.78-10-73.64-19.69c-3.22-.84-6.85-.42-10.12-1.15-2.63-.59-5-2-9-3.76-4.88-.76-12.08-1.22-18.79-3.06q-49.74-13.65-99.26-28a85.2,85.2,0,0,1-16.61-6.72c-11.27-6.07-24.78-5.59-36.47-10.27-.59-.24-1.29-.26-1.9-.47-29.72-10.09-59.66-19.74-89.08-30.48-17.5-6.38-34.2-14.49-51.26-21.81C1292.09,854.58,1289.37,853.45,1286.16,852.1Z"/><path class="cls-3" d="M1.1,456c-1.25,7.46-.66,13,4.48,18.54,10.94,11.71,20.86,24.16,31.61,36,7.84,8.65,16.27,16.9,24.57,25.23s16.41,16.44,24.85,24.46c16.78,16,33.49,32,50.66,47.61,17.48,15.92,35.22,31.64,53.36,47,9.27,7.84,19.7,14.62,29.54,21.94,9.19,6.84,18.19,13.86,27.45,20.61,12.08,8.81,24.11,17.69,36.56,26.08,18.07,12.17,36.25,24.25,54.85,35.77,16.54,10.24,33.78,19.61,50.61,29.49,12.2,7.16,24.18,14.58,36.36,21.76,8.31,4.91,16.43,10.2,25.3,14.19,5.57,2.51,12.35,2.92,19.34,3.08-.77-1-1.3-2.25-2.35-2.85-13.2-7.49-26.54-14.81-39.72-22.34-8.45-4.83-16.7-9.94-25-15-10.62-6.38-21.4-12.57-31.8-19.23-28.87-18.47-57.91-36.75-86.23-55.85-18.92-12.76-37.12-26.41-54.95-40.35-24.44-19.11-48.81-38.36-72.12-58.52-20.24-17.5-39.2-36.17-58.29-54.66C83,542.4,66.08,525.54,49.63,508.36,35.13,493.21,21.43,477.47,7.34,462,5.62,460.14,3.64,458.45,1.1,456Z"/><path class="cls-3" d="M213.8,70.47l6.58-21.88L218,47.91c-2.8,5.71-5.77,11.37-8.34,17.16-1.15,2.61-.9,5.77-2.37,8.16-3.84,6.23-8.59,12-12.39,18.27-4.25,7-7.79,14.35-11.81,21.46-.5.88-2.08,1.29-3.15,1.91-.36-1.13-1.39-2.53-1-3.35,4.11-8,8.54-15.85,12.68-23.82a68.19,68.19,0,0,0,3-8l-2-.63c-5.22,10.11-10.08,20.39-15.82,30.27-2.67,4.61-4.17,7.92,2.79,9.65-4.71,6.55-9.22,12.61-13.42,18.83-.77,1.15-.37,2.95-.36,4.45,0,1.31.78,2.84.26,3.89-3.73,7.5-7.43,15-11.7,22.29-3.68,6.28-8.22,12.17-12.16,18.34-3.66,5.74-7,11.64-10.55,17.44-.23.38-.85.59-1.9,1.27.45-2.16.77-3.67,1.09-5.19l-2-.58c-5.06,12-10.12,23.95-15.25,36.12l3.63-1.35c-6.74,8-7.65,19-17.85,24.8-.62.35-1.32,1.42-1.14,1.91,1.89,5.17-3,8.13-4.88,12.05a8.43,8.43,0,0,0-.41,1.85l5.61-.41c-1,2.9-1.53,5.17-2.66,7.16-3.49,6.13-7.64,12-10.77,18.26-3.57,7.15-4,8-11.16,11L92.68,279l-2.36-1.56c-1.73,1.36-3.82,2.5-5.11,4.12A153.19,153.19,0,0,0,73.77,297c-2.94,4.84-9.42,8.52-7.26,15.34.09.29-1.93,1-2.89,1.67-1.23.81-2.81,1.52-3.5,2.63-2.37,3.81-4.18,7.91-6.69,11.65-1.62,2.42-4.46,4.21-6.06,6.63-2.87,4.38-5,9.12-7.84,13.54-3.29,5.19-7,10.19-10.35,15.14l6.65,1.64c-.72,1.94-1,4.16-2.24,5.75-3.49,4.36-7.41,8.44-11.15,12.63l.55.1-9.21,13.18-1.54-2L2.57,406.57c-.63-.34-1.26-.68-1.88-1,1.08-2.75,2.92-5.48,3-8.26s-2.37-5.44-2.34-8.16c.13-10.65-3.68-22,7.22-30.93,3.74-3.08,6.2-7.37,9.2-11.13,9.26-11.56,18.33-23.25,27.79-34.68,7.66-9.24,16.68-17.69,23.48-27.38,10.76-15.32,20.24-31.34,30.13-47.13,8.61-13.74,17-27.58,25.57-41.36.49-.79,1.24-2,1.92-2.07,6.1-.29,7.27-5.2,7.37-8.26.32-10.12,7.34-17.88,12.38-25.61,11.44-17.58,17.82-37.06,29.1-54.62,6.36-9.92,10.91-20.75,16.2-31.2,3.87-7.62,7.81-15.23,11.41-23,5-10.64,9.61-21.38,14.47-32.06.34-.76,1.25-1.33,2.44-2.55-.23,2.39-.39,4-.54,5.54l1.23.5,3.59-4.57c4.62,1.52,4.36,3.68,2.37,7.46-2.39,4.53-3.11,9.74-4.63,14.94l4.48-.92c-2.29,7.35-4.08,14.25-6.68,20.9-1.31,3.34-4.11,6.22-6.24,9.31ZM85.22,267.33l2.39,1.35L108.84,240l-3.14-1.6Q95.46,252.85,85.22,267.33ZM10.51,388.42l4.39-14.83L3.14,386.68l1.78,1.74ZM54,310.08l-2.31-1.33q-6,8.33-12,16.63l1.92,1.25Z"/><path class="cls-3" d="M839.55,284.27c18.82,98.6,45.08,195.75,57.7,295,10.35-.66,17.32-7.37,16.24-15.83-1.77-13.78-3.51-27.57-5.73-41.29-2.09-12.93-4.86-25.78-7.23-38.67-2.26-12.31-4.17-24.66-6.63-36.93-2.24-11.15-4.93-22.24-7.55-33.34-3.7-15.65-7.5-31.29-11.28-46.92-3.37-13.92-7-27.8-10.05-41.76-1.83-8.32-3-16.77-4.16-25.19-.93-6.56-4.51-10.31-12.35-10.87-1.89-.14-3.59-2-5.47-2.92A27.12,27.12,0,0,0,839.55,284.27Z"/><path class="cls-3" d="M488.45,848.05c23.47,11.19,46.62,23,70.5,33.4,22,9.64,44.92,17.67,67.22,26.8,14.57,6,28.66,12.8,43.16,18.89,10,4.21,20.46,7.63,30.56,11.7,17,6.84,33.8,13.95,50.72,20.89,23.11,9.48,46.36,18.72,69.33,28.45,8.69,3.68,16.75,8.52,25.18,12.69,17.13,8.47,34.12,17.2,51.55,25.18,23.81,10.9,46.46,23.28,67.15,38.33,6.88,5,13.91,9.95,20,15.63,5.2,4.82,10.62,5,17.82,3.1-.92-1.43-1.4-3-2.55-3.83-20.34-15.51-40.83-30.79-64.21-42.85-15.78-8.14-30.66-17.63-46.36-25.9C876,1003.93,863,998.1,850,992.21q-33.81-15.3-67.86-30.22C763,953.65,744,945.17,724.46,937.57c-20.65-8-42-14.8-62.67-22.7-16.23-6.19-32-13.31-48-19.93-9.89-4.09-19.95-7.86-29.77-12.08-9.63-4.13-19.13-8.51-28.55-13q-26.21-12.52-52.22-25.32c-5.31-2.6-9.73-1.08-14.17,1Z"/><path class="cls-3" d="M535.59,289.6c5.28,2,10.53,4.1,15.85,6,6.73,2.44,13.8,16,9.82,20.36s-8.69,8.88-14.22,11.37c-10.56,4.76-21.51,9.58-34.15,8.22-.21,0-.43.08-.65.07-3.53-.17-9.42-1.51-10.17-.33-2.9,4.58-4.3,9.92-6,15-1.11,3.39-.94,7.28-2.78,10.26-3,4.93,0,6.11,4.15,5.76,10.38-.88,20.69-2.36,31-3.64,5.6-.69,11.46-.74,16.7-2.35,11.63-3.56,23-7.79,34.31-12.07,2-.75,3.4-3,4.7-4.71,6.69-9,13.38-18,19.81-27.1,4-5.66,3.19-10.53-3-14.27-17-10.35-34.79-19.4-56.41-18.88-3.25.07-6.42,2.86-9.62,4.39C535.2,288.37,535.4,289,535.59,289.6Z"/><path class="cls-3" d="M484.9,365.28c-4.48-7.37-8.38-14.18-12.69-20.78-4.1-6.27-11.74-6.46-18.09-5.5-13.39,2-26.23.12-39.06-2.21a243.55,243.55,0,0,1-28.94-7c-10.64-3.32-12.35-7.32-8.95-16.75,1.71-4.73-.46-7.34-5.57-9.14-10.61-3.76-19.77-2.29-28.2,4.31-3.67,2.87-6,5.28-1.4,9.37,8.32,7.29,16.05,15.1,24.25,22.51,7,6.34,14.51,12.29,21.49,18.66,5.67,5.16,13.27,6,20.35,6.41,21.57,1.34,43.2,1.92,64.82,2.47C476.58,367.72,480.31,366.23,484.9,365.28Z"/><path class="cls-3" d="M790.65,91.36c4.35,14.61,8.93,29.17,13,43.85,3.5,12.67,6.29,25.5,9.6,38.22,3.06,11.74,6.2,23.48,9.69,35.13,3.07,10.26,6.75,20.37,10,30.6.85,2.72,1,5.62,1.51,8.43,1,5.36,4.07,9.06,10,11.22,3.08,1.13,5.68,3.28,10.28,4.39-.7-4.5-1.08-9.06-2.14-13.49-4.56-19.2-8.89-38.46-14.15-57.51-3.82-13.81-9.16-27.29-13.47-41-3-9.65-5.43-19.45-8.22-29.16-2-7.07-4.26-14.1-6.4-21.14-.11-.37-.11-.93-.38-1.08-6-3.36-12.1-6.67-18.15-10Z"/><path class="cls-3" d="M927.5,887.84c2.68,16.87,5.19,32.68,7.8,49.06-.28.54-1.79,2-1.63,3.39,1.3,11,3,22.05,4.38,33.09q2.25,18.51,4,37.06c.4,4.13-.06,8.32.28,12.45.79,9.65,7.31,16.17,15.92,21.29,1.4.83,4.1,1.2,5.42.55,1.1-.54,1.62-2.93,1.45-4.42-3.73-32.09-7.68-64.16-11.4-96.25-1.76-15.1-3.23-30.22-4.64-45.34-.36-3.9-1.39-6.41-6.59-7C938.07,891.22,933.8,889.53,927.5,887.84Z"/><path class="cls-3" d="M536.87,423.94c1,1.51,1.47,3.27,2.55,3.64,8.4,2.93,16,8.87,25.64,7.4,5.63-.86,10.92-3.52,16.31-5.49,25-9.14,50-18.45,72-32.76a75.29,75.29,0,0,0,25.43-28c4.83-9,5.09-18.2-1-27.11-3.8-5.54-7.27-11.26-11.11-16.78-.85-1.21-2.66-1.89-4-2.81l-1.44,1c1.54,8.41,3.23,16.81,4.6,25.24,1.32,8.13-2.4,14.54-7.78,21.21-13.62,16.9-33.71,25.48-53.7,34.27-19.77,8.7-41.19,13.24-62.42,18.2A37.46,37.46,0,0,0,536.87,423.94Z"/><path class="cls-3" d="M883.89,712.73c3,22.42,6.12,43.78,8.69,65.18,2.21,18.46,3.62,37,5.76,55.46,1.2,10.29,3.11,20.51,4.9,30.73.23,1.31,1.41,3.26,2.59,3.54,4.65,1.15,9.47,1.76,14.29,2.57-3-27.67-6.36-54.08-8.65-80.57-1.75-20.32-2.07-40.74-3.34-61.1a10.38,10.38,0,0,0-3.61-6.74,99.81,99.81,0,0,0-14.62-9.63C888.47,711.39,885.69,712.52,883.89,712.73Z"/><path class="cls-3" d="M422.9,418.29c-9.24-.64-18.58-.86-27.69-2.22-7-1-13.57-4-20.53-5.31-16.79-3.2-30.76-11.55-43.35-20.7a44.94,44.94,0,0,1-18.72-31.3c-1-8.17.85-15.23,6.24-21.68.83-1,2.62-1.34,4-2,0,5.95-1.67,11.51.31,15.77,6.06,13,16.68,22.44,33.12,25.25,6,1,12.25.89,18.25,1.9,4.59.78,10.07,1.47,13.24,4,14.22,11.51,27.76,23.67,42.32,36.28C427.33,418.31,425.1,418.44,422.9,418.29ZM364.69,384c-4.36-1.4-8.58-3.18-13-4.44a13.57,13.57,0,0,0-7.05.2c12.64,11.53,30.2,10.52,45.19,15.65C384.59,385.58,373.56,386.83,364.69,384Z"/><path class="cls-3" d="M491.18,418.33c3.45-3.19,7.63-5.38,11.65-7.78,14.23-8.5,28.52-16.92,42.56-25.66,9.61-6,20.45-11.23,27.88-18.95,13-13.5,23.81-28.65,35.57-43.09a53.23,53.23,0,0,1,25.51-17.32c6.4-2,15.33,2.48,18.87,8.66,1.8,3.15-3.12,16.63-6.38,19.7-10.72,10.12-25.73,14.21-38.38,21.6-10.34,6-20.88,11.82-31.41,17.62a60.31,60.31,0,0,1-6.87,2.74C544.94,392.25,517.79,404.89,491.18,418.33ZM633.67,307.58c-1.75,2.93-3.51,5.85-5.7,9.5C635.62,316.08,636.86,314.39,633.67,307.58Z"/><path class="cls-3" d="M901.47,884.73c2,19.43,3.95,38.5,6.07,57.55.72,6.43,2.31,12.8,2.88,19.23,1,11.82,1.87,23.66,2.27,35.51.2,6.07,3.44,11.72,1.9,18.15-.77,3.21,1.06,7,6.44,8.63,4.41,1.36,7.94,4.92,11.87,7.51l1.51-.77c-.6-3.23-1.42-6.44-1.79-9.68-2.25-19.93-4.51-39.86-6.56-59.8-1.09-10.7-1.8-21.42-2.62-32.14-.94-12.3-1.79-24.6-2.71-36.9-.28-3.84-2.24-5.86-7-5.89C909.66,886.11,905.64,885.24,901.47,884.73Z"/><path class="cls-3" d="M448.13,971.83c11.37,5.88,21.31,4.14,31.58-.78,12.6-6,25.45-11.75,38.53-16.95,19.67-7.82,39.49-15.42,59.53-22.48,17-6,34.44-11.1,51.67-16.61a3.5,3.5,0,0,0,.91-.64,23.71,23.71,0,0,0-24.13-5.09c-16.91,5.7-33.89,11.24-50.78,17-24.71,8.4-48.32,18.8-71.41,30.21-9.42,4.66-19.64,8.07-29.46,12.11C452.5,969.43,450.58,970.58,448.13,971.83Z"/><path class="cls-3" d="M184.59,164.38c1.2,2.38,2,4,3.39,6.69-8.67,14.91-17.85,31.3-27.66,47.38-9.07,14.88-19.25,29.25-28.06,44.25-3.39,5.76-10.84,8.34-12.2,16.06-1.16,6.58-6.79,12.71-11.13,18.64-2.37,3.23-7.85,5.21-9,8.52-1.77,5.3-6.47,7.94-9.65,11.88-2.34,2.91-3.56,6.49-5.41,9.72-3.17,5.54-5.83,11.4-9.8,16.47-7.75,9.88-16.06,19.44-24.5,28.88-10.06,11.24-20.43,22.26-30.82,33.26-5.91,6.26-12.14,12.27-18.22,18.39-.33-3.31,1.45-6.21,1-8.82-1.41-8.41,8.47-9.68,11.8-15.13,2.08-3.41,7.47-5.12,10.61-8.2,7.14-7,13.82-14.33,20.63-21.57,1.42-1.5,2.57-3.2,3.84-4.81l-1.65-1.28L38.53,373a19.18,19.18,0,0,1,2.37-5.29c5.33-9.39,16.17-15.86,18.38-26.92a2.68,2.68,0,0,1,2-1.41c8.92-.75,11-8.21,15.27-12.94,5.3-5.93,8.06-13.58,12.37-20.26,1.56-2.41,4.42-4.17,6.69-6.22,2-2-1.28-7.24,6.37-6.16.43.06,1.15-1,1.62-1.66,3.26-4.29,6.94-8.39,9.64-12.94,4.63-7.82,12.37-13.6,16.36-22,7.22-15.19,21.86-27,26.67-43.47a26.05,26.05,0,0,1,4.24-7.58c.54-.75,2.45-.72,5.17-1.41l2.34-3.56-3.56-1C171.1,188.26,177.72,176.55,184.59,164.38ZM118.13,280.85l-2.64-1.32-13.15,21.05c.64.32,1.28.64,1.91,1ZM49.69,362.42l2.51,1.49,9.23-12.06-1.79-.76Z"/><path class="cls-3" d="M493.91,323.22A110.11,110.11,0,0,1,447.72,328c-8.69-1-18.27-.37-24.91-7.06-.93-.94-1.86-2.83-1.4-3.73,2.75-5.3,11.62-6.87,18-4.91,6.83,2.09,14.25,2.67,21.42,3.9l.62-2.33c-2-.52-3.9-1.1-5.87-1.57-2.84-.66-6.53-.54-8.29-2.11-1.2-1.07.26-4.46.59-7.34l-26,6.72c7.74-9.66,18.14-13.88,29.23-14.78,19.66-1.6,40.46-.23,51.31,11.72l-18.13,7.6c.27.71.55,1.41.82,2.12l25.58-6.8C507,317.33,500.58,321.07,493.91,323.22Zm-18.88-15c0-.65,0-1.3,0-1.95H459.54l0,1.95Z"/><path class="cls-3" d="M377.42,455.5c-7.44-2.83-13.83-5.39-20.34-7.71-15.66-5.57-30.12-12.86-42.89-22.66a86,86,0,0,0-8.33-5.54c-19.38-11.56-30.38-28.29-37.23-47.37-1.34-3.73-2.4-4.51-6.1-2.65a12.86,12.86,0,0,1-4.19,1.17,45.85,45.85,0,0,1-5.88-.25c2.8,6.88,5,13,7.8,18.88A99.42,99.42,0,0,0,268,401.82c.69,1,2.35,1.48,3.53,2.24a5,5,0,0,1,1.71,1.42c5.1,10,14.3,16.72,23.26,24,17.22,14,37.73,22.79,58.38,31.59,4,1.71,7.83,3.38,12-.67C369,458.26,372.92,457.49,377.42,455.5Z"/><path class="cls-3" d="M429.24,996.71c-9.3-7.32-10-7.37-22-1.61-11.32,5.42-22.91,10.46-33.82,16.45-14.21,7.82-28.55,15.65-41.57,24.86-15.39,10.9-29.36,23.33-44.1,35-4.25,3.35-9,6.2-14.06,9.63,9.89,4.25,19.69,2.84,26.43-3.69,16.69-16.17,35.85-29.7,56.49-41.7,18-10.48,35.89-21.15,54.1-31.35C416.23,1001.15,422.71,999.32,429.24,996.71Z"/><path class="cls-3" d="M675.61,310.14c3.64,3.73,6.82,7.08,10.11,10.33a55.34,55.34,0,0,1,15.62,30c1.88,9.92-2.28,18.57-7.37,26.88-8.35,13.65-20.79,24.38-33.59,34.73-2.59,2.09-6.52,2.85-9.44,4.7-4.55,2.89-4.32,6.54,1,8,3.19.9,8.22.55,10.75-1.15,13.72-9.26,26.52-19.38,36.33-32.18,12.65-16.52,18.22-34.28,10.92-53.49A76.33,76.33,0,0,0,694.8,314C687.22,305.77,689.63,304.92,675.61,310.14Z"/><path class="cls-3" d="M124.53,77.54l3.18,1.22q3-8.12,6-16.23l11.11-25.2c-5.12,27-20.53,50.54-31.89,74.8-2.18-.09-4.9.1-5.42,1.15-4.13,8.26-7.86,16.69-11.68,25.08-1.42,3.12-2.76,6.27-3.55,8.06-1.07,3.83-1.17,6.43-2.46,8.44-5,7.81-10.63,15.31-15.48,23.18-5.49,8.88-10,18.23-15.66,27-4.37,6.78-10.05,12.9-14.77,19.52-13.77,19.32-27.35,38.74-41,58.13L0,281.64c1.16-3.67,1.48-7.77,3.61-10.92,10.43-15.4,21.31-30.57,32.08-45.8,9-12.73,18.47-25.24,27-38.21,7.09-10.77,13.46-21.93,19.59-33.15,8.06-14.73,15.58-29.7,23.3-44.57q9.36-18,18.65-36.1c1.79-3.49,3.3-7.09,5.28-10.48,1.32-2.26,3.12-2.76,4.33.26ZM118.3,93.75l2.37.79q2.37-5.51,4.73-11l-2.3-.92Z"/><path class="cls-3" d="M548.24,376.34c-5.35.73-10.68,1.49-16,2.17-14.65,1.86-29.24,4.25-44,5.31-8.18.59-16.55-1.1-24.85-1.63-1.14-.08-3.06.3-3.37.94-.58,1.2-.85,3-.2,4.09,2.82,4.51,6.07,8.82,9.06,13.25,1.32,2,2.29,4.11,3.62,6.06.86,1.28,2,3.32,3.14,3.38,6.05.3,13.07,1.81,18-.27,18.55-7.76,35.22-18.44,52.14-28.65,1.31-.8,2.13-2.22,3.18-3.35Z"/><path class="cls-3" d="M358.38,418.13c-7.1-2.83-14.2-5.68-21.31-8.5A95.55,95.55,0,0,1,295.52,378c-8.28-10.77-10.55-21.66-7.73-34,1.56-6.88,2.41-13.89,3.54-20.64-.28.13-1.77.43-2.37,1.23-9.43,12.85-15.41,26.24-11.24,42.15,6.27,23.92,24.6,39,46.74,51.6,5.14,2.92,10.33,5.81,15.73,8.32,4.23,2,8.59,3.62,12.39-1.37,1.6-2.09,4.87-3.18,7.38-4.73Z"/><path class="cls-3" d="M904.89,702.51c-2.94-21.18-5.87-41.59-8.56-62-.73-5.55-.63-11.18-1.21-16.75-.17-1.59-1.4-3.08-2.15-4.62-1.58.72-3.22,1.37-4.74,2.18a35.62,35.62,0,0,0-5.4,3.28c-5.4,4.32-6.51,9.32-5.27,15.89,2.8,14.76,4.69,29.69,6.1,44.61.57,6,6.81,7,9.86,10.71C896,698.77,900.81,700.21,904.89,702.51Z"/><path class="cls-3" d="M635.36,348.41c-38.81,16.08-69.84,40.06-106,56.73l1.2,2c5.31-2,10.55-4.19,15.94-6,7.11-2.41,14.33-4.54,21.5-6.82,1.84-.59,3.69-1.21,5.46-1.95,15.08-6.28,31.65-9.94,44.9-19.41,6.46-4.61,13.19-9.19,16.4-16.29C635.64,354.76,635.14,352.35,635.36,348.41Z"/><path class="cls-3" d="M631.2,431.13c-.87.29-2.49.77-4.05,1.38-12.77,4.93-25.37,10.24-38.33,14.73-15.51,5.36-31.29,10.1-47,14.9-3.21,1-7.92,1.77-5.73,5.06,1.8,2.73,7.7,5.88,10.54,5.14,13.91-3.63,27.49-8.31,41-13,7-2.43,13.63-5.77,20.52-8.49,4.48-1.77,9.27-2.93,13.68-4.81,6.24-2.67,12.3-5.68,18.33-8.71,1.32-.66,2.22-2,3.31-3a19.93,19.93,0,0,0-4.22-2.08A80.23,80.23,0,0,0,631.2,431.13Z"/><path class="cls-3" d="M396.6,477.85c37.77,3,74.93,5.41,113,1.77-3.23-4.52-6.7-8.31-12.82-8.56-8-.33-16.11,0-24.16-.09s-16.34-.36-24.5-.67c-9-.33-18.42.66-26.72-1.6-10.61-2.88-15.51,5.16-23.49,6.78C397.45,475.58,397.23,476.69,396.6,477.85Z"/><path class="cls-3" d="M439.1,436.45c-4.57-1.09-8.35-2.36-12.26-2.85-13.19-1.66-26.42-3.06-39.64-4.53-1.65-.19-3.74-.82-4.92-.2-4.91,2.56-9.55,5.53-15.5,9.07,10.67,8.53,24.08,8.91,36.3,12.29C418.86,454.59,427.62,445.61,439.1,436.45Z"/><path class="cls-3" d="M10.63,144.59c1.26.1,3.42.63,3.66.24q20.48-32.76,40.57-65.7c2.24-3.69,4.9-7.92,4.75-11.82-.22-5.84,2.59-10.05,5.16-14.91,1.57-3-.11-7.25-1-11.36C47,76.08,24,108.17.66,140l1.48,1.09A27.84,27.84,0,0,1,6,137.34c1.06-.71,2.66-.78,4-1.15L11.72,138C19,124.81,26.13,111.61,33.49,98.5c.71-1.26,2.52-2,4.11-3.28L44,80.15l5.74,1.56c-.06.48.06,1.11-.23,1.54-5.22,7.64-10.75,15.12-15.65,22.91-3.71,5.9-6.5,12.24-9.94,18.28-2.41,4.24-5.2,8.31-7.86,12.44-1.71,2.63-3.49,5.23-5.23,7.84Z"/><path class="cls-3" d="M225.56,73.93c-1.37,2.84-2.4,5.36-3.76,7.73-1.28,2.21-2.91,4.26-3.32,6.92l7.39-5.18,1.44,1.18c-1.61,2.31-3.23,4.62-4.84,6.94l1.61-.24,1.78,8.78-6.19,1.13,1.61.69c-1.68,4.84-2.59,10.05-5.23,14.44A128,128,0,0,1,202.68,134c-3.65,4.18-13.5,25.87-13.41,32.4,28.32-43.1,48.53-88.6,69.22-134.07l-6.84,10-1.7-.76q3.2-5.7,6.4-11.38l-3-1.2Q247.74,40,242.16,51c-.69,1.35-.92,3.2-2.09,4-4,2.75-4.63,6-3.72,10.19C237.76,71.62,233.24,75.25,225.56,73.93Z"/><path class="cls-3" d="M515.28,451.83c8.89-2.32,17.82-4.53,26.6-7.15.89-.26,1.69-4,1.08-4.42-6.88-4.49-13.93-8.81-21.21-12.76-1.79-1-4.75-1-6.91-.57-7.55,1.63-15,3.54-22.42,5.7a4.57,4.57,0,0,0-2.58,3.79C490.17,439.27,511.48,451.35,515.28,451.83Z"/><path class="cls-3" d="M414.94,377.68c.89,7.38,39.45,38.08,50.54,39.71-1.28-3.69-1.66-7.12-3.52-9.75-6.39-9.11-13.23-18-20.09-26.82a6.53,6.53,0,0,0-4.17-2C430.15,378.32,422.59,378.05,414.94,377.68Z"/><path class="cls-3" d="M488.37,291.1c9.47,3.11,19,6,28.37,9.4,5.12,1.84,8.16,5.24,8.61,10.54.48,5.61-3.83,7.9-8.09,10.14s-8.93,3.92-13.11,6.58c7.62.26,15.22,2.33,22-2.24a18.91,18.91,0,0,1,7.09-2.89c6.89-1.15,10.14-5.92,9.79-10.67-.29-3.94-3.74-9.11-7.56-11.16-12-6.45-25.15-10.78-39.77-9.86-2.44.16-4.93-.4-7.4-.63Z"/><path class="cls-3" d="M918.75,1084.49c4.2.21,7.69.79,11.06.45,4.32-.43,5.44-3.62,5.07-6.83-1-8.78-1.28-17.79-4-26.18-1.59-4.92-7.28-8.81-12.44-12.72C913.7,1054.48,919.46,1069.12,918.75,1084.49Z"/><path class="cls-3" d="M536.15,249.87c15.59,2.85,31.17,5.73,46.77,8.54A201.1,201.1,0,0,1,659,288.75c2.17,1.44,5.2,1.87,7.84,2.77-1.44-2-2.33-4.87-4.41-6-12.74-7-25.53-13.88-38.72-20.15-22.93-10.92-48.64-13.12-73.72-17.09-4.47-.71-9.2-.1-13.82-.1Z"/><path class="cls-3" d="M452.26,264.09c4.63,0,9.25-.08,13.88,0,16.57.34,33.25-.16,49.69,1.37,15.72,1.46,31.2,5,46.77,7.71,4.65.82,8.13,0,10.4-5-40.18-7.72-80.2-10.67-120.7-6.81C452.29,262.28,452.28,263.18,452.26,264.09Z"/><path class="cls-3" d="M420.69,329.54c-5-3.21-10.28-6.09-14.82-9.71-7.64-6.11-6.8-13,2.13-17.64,5.73-3,12-5.19,18-7.74.8-.34,1.65-.59,2.48-.89l-1.2-1.64c-6.23,1.49-12.49,2.91-18.7,4.48-3.32.84-6.51,2.09-9.84,2.85-5.66,1.3-11.81,7.56-12.37,13.64-.51,5.59,2.87,9.79,8.55,11.64,8.3,2.7,16.94,4.59,25.44,6.82Z"/><path class="cls-3" d="M519.28,248.14c-7.7-8.34-116.66-2.47-126,6.86,5.49,0,10.12.78,14.26-.13,22-4.87,44.42-6,66.9-6.66C489,247.8,503.63,248.14,519.28,248.14Z"/><path class="cls-3" d="M362.9,298.65c8.36,1.6,15.65,3.86,23.76-.4,11.45-6,23.6-11,36.09-16.72C409.61,278.45,367.51,290.37,362.9,298.65Z"/><path class="cls-3" d="M422.8,265c-10.05,1.1-20.45,1.1-30.08,3.5-21.28,5.29-42.19,11.74-63.21,17.81-3.69,1.06-6.48,3.43-4.55,7,2.14,4,5.81,1.72,8.3.18,15.54-9.6,33.08-15.41,51-20.1,12.55-3.29,25.69-4.81,38.57-7.12Z"/><path class="cls-3" d="M943,1055.7c.4,4.79.68,9,1.11,13.1.3,2.86,2,6.11,1,8.5-3.79,8.91,2.9,7.07,8.37,7a49.22,49.22,0,0,1,7,1C965.12,1072.78,959.61,1063,943,1055.7Z"/><path class="cls-3" d="M309.17,374c-1.26-3-2.67-6-3.75-9-4.38-12.32-1.76-24.44,1.77-36.46.57-1.92,2.91-3.39,3.89-5.28.83-1.61,1.86-4,1.08-5.2-1.39-2.06-4.08-3.42-6.23-5.08-1.63,2.25-4.3,4.37-4.69,6.77A282.94,282.94,0,0,0,297.75,349c-.57,9.62,4.17,17.91,9.38,25.88Z"/><path class="cls-3" d="M438.55,457.41c12.34,3.68,24.37.86,37.31-1.4-4.59-4.55-8.26-8.45-12.31-12-.81-.7-3.45-.59-4.67,0-7.18,3.64-14.19,7.54-21.26,11.36Z"/><path class="cls-3" d="M256.92,357.07c7.34-2.09,7.81-7.39,9.69-12.22,2.69-7,6.31-13.62,9.45-20.44.86-1.88,1.38-3.88,2.82-8-4.05,1.13-7.33,1.14-8.58,2.54C260.45,330,257.53,343,256.92,357.07Z"/><path class="cls-3" d="M425.62,919.14c6.2-3.49,12.8-7,19-10.93,1.22-.77,1.92-3.66,1.24-4.82s-3.54-1.5-5.37-1.38c-8,.52-15.61,2.26-20.74,8.3-1.3,1.53-2.9,4.45-2.16,5.41C418.82,917.25,421.85,917.66,425.62,919.14Z"/><path class="cls-3" d="M435.55,959.85c1,.83,1.88,2.11,3.16,2.55,6,2.09,26-9.73,25.37-15.26-.17-1.49-3.9-4-5.64-3.78C451.37,944.23,439.09,953.48,435.55,959.85Z"/><path class="cls-3" d="M461.21,275.81c21.79,3,45.89,6.27,70,9.48.84.12,1.83-.65,4.9-1.84-3.6-1.53-5.53-2.89-7.64-3.15-13.23-1.63-26.45-3.44-39.76-4.36C478.77,275.25,468.71,275.81,461.21,275.81Z"/><path class="cls-3" d="M403.26,931c-5.55-1.06-9.94-2.22-14.42-2.65a23.14,23.14,0,0,0-9.52.84c-2.32.82-3.9,3.24-5.81,4.95,2,1.13,3.89,2.7,6.1,3.28a56.56,56.56,0,0,0,12.12,2C397.72,939.68,400.75,936.15,403.26,931Z"/><path class="cls-3" d="M640.41,296.3c-4.41-6.25-35.8-17.55-46.43-16,3.11,1.64,5,3.25,7.27,3.74,8.85,1.94,16.59,5.11,23.06,11.14C628.68,299.25,634.75,298.29,640.41,296.3Z"/><path class="cls-3" d="M312,281.31c21.27-10.8,42.86-18.42,67.41-21.57C368.62,254.28,313.57,272,312,281.31Z"/><path class="cls-3" d="M141.3,993.16c1.8.54,5.56,2.53,6.45,1.8a67.35,67.35,0,0,0,12.36-12.5c2-2.77-2.94-5.54-7.58-4.26C147.15,979.68,141.62,986.21,141.3,993.16Z"/><path class="cls-3" d="M372.43,1000.24c3.51.74,6.53,2.3,8,1.53a157,157,0,0,0,16.81-10.58,3.88,3.88,0,0,0,.89-4.05c-.48-.81-3-1.25-4.43-1C384.92,987.73,378.64,992.44,372.43,1000.24Z"/><path class="cls-3" d="M129.47,229.67c1.95-1.4,4.56-2.46,5.76-4.25,5.41-8.11,9.41-17.13,15.91-24.46,5.16-5.81,4.24-13,9.39-18.29L159,182q-15.34,23.29-30.7,46.6Z"/><path class="cls-3" d="M378.59,979.61c-5.35,1.33-10.35,2.39-15.16,3.91-1.27.4-2.8,2.3-2.68,3.39s1.94,2.38,3.35,3c4,1.62,16.22-1.13,18.74-4.18.8-1,1.59-3.13,1.1-3.53C382.5,981,380.42,980.41,378.59,979.61Z"/><path class="cls-3" d="M213.8,70.47c-4.2,6.6-8.78,13-12.5,19.83-3.82,7-6.8,14.27-10.15,21.43l1.58.69Q199,100.5,205.17,88.58l1.1.3-2.43,7.19,1.66.43c2-5.53,3.79-11.12,6-16.58.84-2.1,2.59-3.91,3.92-5.85l1.93.45-3.7-4.17Z"/><path class="cls-3" d="M502.21,935.94c7.13.16,15.16-4.39,16.82-8.87.33-.9-2.38-3.65-2.53-3.59-5.8,2.66-11.47,5.55-17.16,8.4C500.51,933.54,501.69,935.19,502.21,935.94Z"/><path class="cls-3" d="M462.4,1026.69c5.26-.06,14.19-6,14.85-9.67.18-1-2.77-3.5-3.05-3.36q-7.83,3.81-15.24,8.24c-.69.41-1,2.62-.53,3A16.16,16.16,0,0,0,462.4,1026.69Z"/><path class="cls-3" d="M538.29,1051.65c5.92,7.48,14.76,9.84,22.59,6.36C558.39,1051.29,547.62,1048.12,538.29,1051.65Z"/><path class="cls-3" d="M458.33,939.52c2.55-.22,4-.08,5.12-.5a37,37,0,0,0,4.71-2.46c-.88-1.25-1.42-2.91-2.68-3.66a17.05,17.05,0,0,0-16-1c-.82.34-1,4.2-.31,4.54A66.24,66.24,0,0,0,458.33,939.52Z"/><path class="cls-3" d="M493.44,923.46c-7.46-.79-12.43,2.92-17.54,5.94-1.15.67-1.07,3-1.55,4.5,1.74.41,3.58,1.38,5.21,1.15C487.09,934,492.35,929.64,493.44,923.46Z"/><path class="cls-3" d="M480.51,903.92c-3.94,3.19-7.93,6.19-11.51,9.55-.59.55.2,3.1,1.2,3.88s3.72,1.21,4.57.6A69.42,69.42,0,0,0,484,909.8c.74-.76.42-2.57.05-3.78C483.88,905.4,482.52,905.05,480.51,903.92Z"/><path class="cls-3" d="M417.55,941.29c3.85,5,13.54,7.45,18.53,5,2.92-1.45,3.3-3.3.11-4.56C430.28,939.36,424.19,936.89,417.55,941.29Z"/><path class="cls-3" d="M1865,1040.22l-32.23-9.35c3.36,5.91,25.76,13,31.71,11.27Z"/><path class="cls-3" d="M510.11,1016.84c-2.94-4-13.52-7.33-17.59-5.28-.86.44-1.33,3.16-.65,4C494.9,1019.19,505.36,1019.76,510.11,1016.84Z"/><path class="cls-3" d="M512.81,975.09c2.29,6.59,15.09,10.14,19.06,6.17.7-.71-.3-4.14-.92-4.24C525.14,976.14,519.24,975.71,512.81,975.09Z"/><path class="cls-3" d="M640,987.22c-3.39-5.84-9.52-6.11-15.17-7a3.72,3.72,0,0,0-3,1.38,3.65,3.65,0,0,0,.51,3.17C624.7,988.26,635.06,989.77,640,987.22Z"/><path class="cls-3" d="M305.52,975.66c5.32,1.76,9.79,3.5,14.46,4.6,1.24.3,4.4-1.37,4.38-2.1,0-1.52-1.25-4-2.58-4.36C316.78,972.46,311.28,969.17,305.52,975.66Z"/><path class="cls-3" d="M388.07,463l-17,4.75.05,2.16c2.2.62,4.74,2.2,6.51,1.69,4.32-1.25,8.28-3.46,12.39-5.28C389.36,465.17,388.71,464.06,388.07,463Z"/><path class="cls-3" d="M174,981.43c2.26,1.66,4.26,3.3,4.4,3.18a58.52,58.52,0,0,0,7.79-7.35c.27-.31-2.28-2.47-3.52-3.78Z"/><path class="cls-3" d="M477.78,341.22l9.68,11.55c.91-5.18,1.54-8.81,2.37-13.55Z"/><path class="cls-3" d="M103.17,936.25a100.12,100.12,0,0,0,10.53,4.16c1,.28,3.18-1.1,3.92-2.19.43-.63-.67-3-1.5-3.21-3.85-.9-7.85-1.31-11.8-1.9C103.94,934.16,103.56,935.21,103.17,936.25Z"/><path class="cls-3" d="M298.16,293.19c-10,1.08-12.3,4-10.64,13.49Z"/><path class="cls-3" d="M1440.64,1045.14l21.3,18,2.26-2.17-22.59-16.51Z"/><path class="cls-3" d="M10.78,144.72C8,148.13,5.06,151.42,2.66,155c-1.27,1.9-1.55,4.32-2.28,6.5l2.75.84q3.76-8.88,7.51-17.75Z"/><path class="cls-3" d="M169.54,156.4l5.72-.94V144.82C172.42,145.27,172.42,145.27,169.54,156.4Z"/><path class="cls-3" d="M150.38,207.11,138.8,226.33l1.87.82q5.46-9.66,10.91-19.34Z"/><path class="cls-3" d="M1359.2,853.6l21,13.85,1.17-1.36-21.21-13.61Z"/><path class="cls-3" d="M54.05,338.34l-10,10.58C48.61,350.37,52.58,346.21,54.05,338.34Z"/><path class="cls-3" d="M284.54,983.49l9.29,2.14,1-2.9L285.69,980C285.31,981.15,284.92,982.32,284.54,983.49Z"/><path class="cls-3" d="M1127.72,863l18.89,7.13.87-1.82-19-6.58Z"/><path class="cls-3" d="M133.16,231.82l-9.59,13.12,2,1.11q4.77-6.47,9.56-12.92Z"/><path class="cls-3" d="M71.17,43.63,76.1,32.39C69.8,34.85,70,39.05,71.17,43.63Z"/><path class="cls-3" d="M1497.1,118.89c15.31,6.12,30.5,11.24,44.55,18.13,9.6,4.72,20.64,5.29,30,10.3,2.83,1.51,7.19.71,10.81,1.18,21.54,2.82,43.08,3.87,64.79,1.16,18.27-2.28,36.57-4.82,55-5.74,10.53-.53,21.4,1.35,31.82,3.34a23.78,23.78,0,0,1,12.62,7.45c2.3,2.73,2,7.43,2.13,11.28.56,13.19-8.73,22-18.53,30.23-11.32,9.48-25.75,13.47-40.85,15.48a59.53,59.53,0,0,1-15.49.21c-12.53-1.67-25.05-3.58-37.4-6.1-10.8-2.2-21.31-5.51-32-8.06-21.78-5.18-43.7-5.7-65.12.94-6.87,2.13-13.26,6.19-18.94,10.36a172.61,172.61,0,0,0-20.94,18.11c-7.94,8.1-11.24,18.36-12.28,28.67-.83,8.2,8.62,12.67,19.43,10.43,11-2.3,19.41-11,18.48-21.08-1.3-14.09,5.59-22.56,20.34-27.05,6.8-2.08,13.12-5.75,20-7,7.76-1.37,16.4-2.35,23.87-.7,14.67,3.23,29.51,7.13,43,13.06,20.52,9,41.22,11,63.39,7.46,12.78-2,24.27-5.94,34.45-13,7.94-5.53,17.06-10,23.94-16.39,10.63-9.84,19.29-21,18.63-35.78-.28-6.24.69-12.52.47-18.77-.46-12.66-10.65-17.77-22.36-21.75-22.32-7.59-45.2-5.13-68-2.94-14.93,1.43-29.7,4.1-44.62,5.65-19,2-37.74-.57-56.11-4.79-11.54-2.65-23-5.62-34.19-9.31-7.38-2.45-14.07-6.48-21.15-9.68a22.81,22.81,0,0,0-7.3-2.37c-1.7-.13-3.55,1.29-5.33,2,1.32,1.2,2.39,2.85,4,3.52,4.7,2,9.61,3.51,15.34,5.56l5-3c-1.2,2.95-1.81,4.44-2.59,6.34,4.49.78,9,1.26,13.28,2.42,2.95.79,5.44,2.8,8.35,3.76a211.7,211.7,0,0,0,49.49,10c9.46.74,19.23-1.68,28.71-1,15.55,1.07,30.33-1.8,45.37-4.14,10.76-1.67,22.21-4.07,32.56-2.39,8.74,1.42,17.24-1.85,25.79,1.55l-2.12,2.28c4.67,1.13,9.09,2.4,13.62,3.26,9.71,1.84,14.76,6.21,16.39,15.61,1.78,10.19,1.39,19.95-2.35,29.27-2.47,6.18-7.54,11.64-11.9,17.14-12.1,15.24-29.24,24.49-48.67,30.8a79.09,79.09,0,0,1-15.13,3.57c-4,.46-8.16-.77-12.22-.63-4.23.13-8.41,1.09-12.64,1.5a8.9,8.9,0,0,1-4.48-.52c-21.16-10.66-44.7-15.47-68.08-19.78-15-2.77-30.68-.78-45.27,4.69-3.35,1.26-7,2-10.28,3.34-8.59,3.6-13.86,9.61-14.88,18.52l-9.05-3.56a65.32,65.32,0,0,1,41.91-26.39c19.83-3.75,39.58-.74,59.29,1.53.3,0,.54.49,1.47,1.39l-5.61-.82-.24,1c4.31.85,8.73,1.42,12.92,2.62,13.89,4,27.42,9.47,41.63,12,9.88,1.73,20.8.24,31-1.23,8.47-1.22,16.77-4.08,24.75-7a39.81,39.81,0,0,0,12.78-7.84c6.9-6.37,12.88-13.51,19.52-20.11,7.22-7.17,7.28-16.26,9.06-24.87.7-3.38.46-6.91.65-10.51l-4.63-2.54,3.68-1.81c-7.26-10.48-17.81-15.91-31.63-16-14-.1-28.06-.6-41.92.65-13.57,1.22-26.87,4.68-40.4,6.62a94.79,94.79,0,0,1-19,.54c-18-1.11-36.35-.76-53.69-6.59-11.94-4-23.72-8.77-36.07-11.38-8.68-1.83-14.77-7.27-22.86-9.47C1504.37,108.8,1504.37,108.77,1497.1,118.89Z"/><path class="cls-3" d="M1874.34,551.76c-12.45-.88-24.93-1.58-37.36-2.67-20.68-1.81-41.36-3.65-62-5.87-30.91-3.32-61.84-6.65-92.64-10.63-14.67-1.9-29-5.58-43.64-8-20.8-3.45-41.78-6.12-62.53-9.8-18.42-3.27-36.62-7.53-54.94-11.23-16.21-3.28-32.5-6.25-48.69-9.61q-32.5-6.72-64.9-13.85c-17.81-3.91-35.56-8-53.3-12.15-6.84-1.6-13.8-3.09-20.28-5.51-4.71-1.76-7.48-2.13-9.65,2.64-2.54,5.59-1.85,9.29,3.46,11.1,9.61,3.26,19.26,6.47,29.08,9.17,14.19,3.89,28.41,7.8,42.86,10.81,25.65,5.35,51.48,10,77.22,15,18.92,3.65,37.79,7.48,56.75,11,14.94,2.73,30,4.85,45,7.6,11.82,2.17,23.45,5.14,35.26,7.31,11.53,2.11,23.17,3.74,34.79,5.44,22.21,3.24,44.35,7,66.68,9.38,23.84,2.54,47.89,3.54,71.8,5.61,17.81,1.54,35.73,2.85,53.25,5.85C1855,565.76,1864.46,559.08,1874.34,551.76Z"/><path class="cls-3" d="M1533.48,565.64c18.38,7.21,42.86,30.88,37.91,52-4.07,17.3-14.28,29.93-30.47,37.16-26,11.61-53.88,18.79-84,15.81-16.38-1.61-32.84-1.55-48.29-8.13-18.45-7.85-34.35-17.8-45.89-33.16-7-9.3-10.28-19-8.11-29.66a34.38,34.38,0,0,1,7.18-15c9.7-11.39,23.23-18.2,38.36-23.08,19.08-6.16,38.81-8.9,60.66-10.49C1484.38,553.92,1509.48,556.23,1533.48,565.64Zm-140.93,79.8a124.5,124.5,0,0,0,56.83,17.32c8.89.47,17.86-.4,26.79-.62A171.92,171.92,0,0,0,1525.3,654c24.58-8,36.61-26.56,34.53-48-1.27-13.19-11-22.6-22.81-30.19-15.19-9.74-32.9-12.39-51-14.46a232.56,232.56,0,0,0-58.48.37c-21.64,3-41.55,10.45-56.9,25.07a19.46,19.46,0,0,0-5.94,16.72C1365.4,623.24,1376.28,635.93,1392.55,645.44Z"/><path class="cls-3" d="M1306.4,649.87v14.52C1311.91,658.56,1307.83,654.22,1306.4,649.87Z"/><path class="cls-3" d="M1015.25,350.38c0,3.12.1,5,0,6.91-.48,7.52,1,8.76,8.68,11.73,11.09,4.31,21.75,9.45,32.68,14.08,7.93,3.36,15.9,6.67,24,9.66,12.86,4.74,25.85,9.2,38.79,13.76,4,1.42,8.19,2.59,12.1,4.21,7.53,3.1,10.41,2.69,14.26-3.65.74-1.21-.94-4.9-2.59-5.67-7.27-3.45-15-6.22-22.46-9.28-12.83-5.23-25.6-10.59-38.48-15.71-16.06-6.38-32.22-12.53-48.29-18.88-3.91-1.54-7.55-3.59-11.43-5.19A64.87,64.87,0,0,0,1015.25,350.38Z"/><path class="cls-3" d="M1028.58,47.55c2-8.7-1.69-16.4-5.69-25.72C1025,31.47,1026.8,39.51,1028.58,47.55Z"/><path class="cls-3" d="M1217.31,452.2c-.82-3.16-1.23-4.77-2-7.75,10.42,2.93,19.87,5.48,29.22,8.25,13.18,3.9,26.29,7.95,39.42,12,4.6,1.41,9.06,3.27,13.77,4.23,1.87.38,4.39-.9,6.31-1.88.93-.48,1.28-2,1.7-3.06,3.16-8.14,2.35-10-6.91-12.3-9.66-2.43-19.6-4-29.25-6.46-29.75-7.55-59.3-15.62-87.36-27.41-2-.86-5.71-.28-7.77.83-4,2.18-7.43,5.21-11.09,7.89l.86,2.33c3.72,1.1,7.47,2.14,11.16,3.3,11.64,3.67,23.42,7.05,34.78,11.29C1212.92,444.47,1214.3,448.36,1217.31,452.2Z"/><path class="cls-3" d="M1491.54,99.21c-7.92-6.35-15.28-12.7-23.31-18.32-1.83-1.28-6.88-1-8.85.34a22.91,22.91,0,0,0-7.74,9.38c-.42,1,4.48,3.84,7.09,5.67,3.63,2.56,7.67,4.7,11,7.48,7.09,5.84,11.94,5.63,17.58-1.08A30.55,30.55,0,0,1,1491.54,99.21Z"/><path class="cls-3" d="M1470.61,77.77c7.6,5.42,15.21,10.77,22.7,16.24,5,3.69,4.86-2.28,8.35-2.47-7.84-5.28-14.84-10-21.91-14.71C1476.72,74.83,1473.61,73.86,1470.61,77.77Z"/><path class="cls-3" d="M1235.31,713.57,1258,729.2l1.5-1.73-23.09-15.22Z"/><path class="cls-3" d="M1248.89,509.61l-9.51-17.91-1.69.65,9,18.11Z"/><path class="cls-3" d="M1281.15,584.83q-2.75-8-5.51-16l-1.48.37q2.47,8.07,4.94,16.15Z"/><path class="cls-3" d="M1391,586.92c-12.3,12.77-8.87,27.76,5.91,35.71s30.44,14.88,49.09,13.18c8.18-.74,16.6.76,24.86.38,3.28-.15,7.87-2,9.25-4.24,1.74-2.87-5.55-10.67-9.51-10.81-6.5-.23-13,.12-19.52.13-17,0-33.18-2.66-48.4-10.08-10.15-5-11.94-12.3-11.33-21.17A21.8,21.8,0,0,0,1391,586.92Z"/><path class="cls-3" d="M1482.06,571c7.34,4.13,15,7.53,21.28,12.26,4.64,3.47,8.07,8.45,11.19,13.19,4.19,6.35-.23,19.11-11.43,20.7a179.24,179.24,0,0,0-19.51,4.09c-.82.21-1.77,3.29-1.12,4.22,7.19,10.37,17.14,11.4,28.57,4.45,7.88-4.79,14.94-9.73,19.06-17.55,4.2-8,2.9-15.11-3-22.13-6.27-7.44-14.09-13-22.8-17.94C1496.21,567.73,1487.46,567.05,1482.06,571Z"/><path class="cls-3" d="M1465.71,577a90.92,90.92,0,0,0,7.38,5.53c5.33,3.23,6.39,6.78,2,11s-9.24,6.58-15.85,8.12c-11.7,2.72-22.51.71-33.81-.72-7.56-.95-10.78-6-15.53-9.71-.89-.7-1.23-1.93-1.82-2.92l-2.86,1.4c1.46,3.14,2.14,6.85,4.5,9.31,9,9.42,22,11.22,34.81,12.16a160.84,160.84,0,0,0,26.79-.24c9.68-.92,18.9-3.62,25.62-10.62,3.19-3.33,3-6.68.59-10.1-7.06-9.89-17.63-14.15-30.27-15Z"/><path class="cls-3" d="M1458.48,644.62c4.18,9.45,8.37,11.81,18.27,11.92a128.88,128.88,0,0,0,44-7.24c6.15-2.14,11.78-5.73,17.13-9.26,4.23-2.78,2.69-4.25-1.41-7.06-9.2-6.3-16.53-1-24,2.09-14.91,6.18-30.52,8.86-46.88,8.83A64.76,64.76,0,0,0,1458.48,644.62Z"/><path class="cls-3" d="M1506.93,570.27c39.41,17.87,40.19,34,27.28,55l7.21,7.45c1.94-1.34,4.66-2.41,6-4.26,11.7-16.51,3.11-42-17-50.78-6-2.62-12.14-5-18.33-7.3C1510.58,569.81,1508.65,570.27,1506.93,570.27Z"/><path class="cls-3" d="M1385.63,633.38c19.54,13.87,41.33,19.53,65,22.38-2.32-8.11-4.79-10-12.74-10.75-13.82-1.36-27.06-4.22-38.84-11.26C1395.65,631.75,1391.74,629.18,1385.63,633.38Z"/><path class="cls-3" d="M1387.13,624.3c-9.93-14.26-15.8-28.58,2.75-41.81-8.92,1-13.14,6-16.89,11.53-5.81,8.54-3.38,17.06.92,25.17C1376,623.19,1379.89,626.47,1387.13,624.3Z"/><path class="cls-3" d="M1473.76,567.73c-1.79-1-3.48-2.63-5.39-2.87-12.24-1.53-24.6-3.67-36.36,2.27l40.31,1.71Z"/><path class="cls-3" d="M1447.78,572c-4.38,0-8.89-.61-13.09.15-5.5,1-10.77,3-16.12,4.67-5.13,1.59-6.83,4.82-5.62,10.15,9.13-10.38,22.7-10.35,35.47-12C1448.21,573.94,1448,573,1447.78,572Z"/><path class="cls-3" d="M1432.75,581.71l26.14,4.45c-1.17-2.39-1.47-5-3-5.9C1449.8,576.8,1437.18,577.92,1432.75,581.71Z"/><path class="cls-3" d="M1396.7,576.9c7.54,2.6,14.38-1.31,17.11-9.79Z"/></g></svg>